<?xml version="1.0" encoding="UTF-8"?>
<svg xmlns="http://www.w3.org/2000/svg" xmlns:xlink="http://www.w3.org/1999/xlink" width="150px" height="171px" viewBox="0 0 150 170" version="1.1">
<g id="surface1">
<path style=" stroke:none;fill-rule:nonzero;fill:rgb(0%,0%,0%);fill-opacity:1;" d="M 54.003906 0.734375 C 49.035156 2.738281 46.125 9.46875 48.480469 13.472656 C 51.136719 17.863281 59.101562 17.734375 64.28125 13.175781 C 65.140625 12.453125 65.867188 11.984375 65.867188 12.152344 C 65.867188 12.578125 64.027344 14.539062 60.429688 17.988281 C 57.816406 20.460938 56.402344 22.761719 55.804688 25.488281 L 55.503906 26.9375 L 56.832031 26 C 57.558594 25.488281 59.359375 24.507812 60.855469 23.828125 C 63.511719 22.632812 63.597656 22.550781 64.710938 19.695312 C 68.136719 10.832031 68.136719 5.082031 64.710938 2.011719 C 62.441406 -0.03125 57.429688 -0.628906 54.003906 0.734375 Z M 58.800781 2.523438 C 58.972656 2.78125 59.230469 2.863281 59.398438 2.78125 C 59.570312 2.652344 60.34375 2.949219 61.113281 3.417969 C 62.613281 4.3125 64.238281 7.507812 63.984375 9.042969 C 63.855469 9.554688 63.769531 10.40625 63.769531 10.917969 C 63.726562 11.941406 62.011719 13.941406 60.214844 15.050781 C 59.1875 15.730469 58.757812 15.730469 56.574219 15.261719 C 53.105469 14.539062 52.632812 14.242188 51.691406 12.023438 C 50.792969 9.894531 50.664062 8.234375 51.347656 6.488281 C 51.949219 4.910156 53.832031 2.949219 54.773438 2.949219 C 55.203125 2.949219 55.675781 2.738281 55.804688 2.523438 C 56.144531 1.96875 58.457031 1.96875 58.800781 2.523438 Z M 58.800781 2.523438 "/>
<path style=" stroke:none;fill-rule:nonzero;fill:rgb(0%,0%,0%);fill-opacity:1;" d="M 55.632812 7.976562 C 55.332031 8.574219 55.375 9.042969 55.847656 9.722656 C 57.128906 11.515625 60.34375 10.023438 59.1875 8.148438 C 58.5 7.082031 56.1875 6.953125 55.632812 7.976562 Z M 55.632812 7.976562 "/>
<path style=" stroke:none;fill-rule:nonzero;fill:rgb(0%,0%,0%);fill-opacity:1;" d="M 73.789062 4.058594 C 73.105469 4.1875 71.476562 4.441406 70.234375 4.695312 C 68.09375 5.121094 68.007812 5.164062 68.308594 6.273438 C 69.035156 8.828125 68.609375 13.304688 67.238281 17.480469 C 66.464844 19.738281 65.867188 21.78125 65.867188 22.039062 C 65.867188 22.292969 66.808594 22.761719 68.007812 23.101562 C 70.0625 23.699219 74.21875 25.871094 73.917969 26.171875 C 73.832031 26.253906 72.976562 26.085938 72.078125 25.746094 C 71.136719 25.402344 69.078125 25.148438 67.539062 25.105469 C 65.226562 25.105469 64.238281 25.359375 61.96875 26.46875 C 55.460938 29.664062 46.507812 41.636719 44.238281 50.199219 L 43.683594 52.375 L 44.96875 51.480469 C 45.652344 50.96875 46.425781 50.074219 46.679688 49.433594 C 47.453125 47.386719 49.164062 44.066406 50.019531 43 C 50.835938 41.933594 50.835938 41.976562 50.019531 44.191406 C 49.550781 45.429688 49.164062 46.921875 49.164062 47.472656 L 49.164062 48.539062 L 50.792969 47.730469 C 54.859375 45.683594 61.839844 44.746094 67.367188 45.554688 C 74.046875 46.492188 75.632812 46.535156 77.601562 45.8125 C 79.230469 45.214844 79.441406 44.960938 79.230469 44.066406 C 79.144531 43.46875 79.230469 42.746094 79.484375 42.445312 C 79.785156 42.105469 79.742188 41.679688 79.316406 41.125 C 78.5 39.976562 78.542969 38.996094 79.527344 38.144531 C 80.8125 36.992188 82.269531 37.417969 82.828125 39.082031 C 83.210938 40.316406 83.339844 40.402344 83.8125 39.847656 C 84.625 38.867188 85.011719 38.996094 86.636719 40.613281 C 88.992188 42.828125 88.480469 45.554688 85.78125 45.554688 C 84.96875 45.554688 84.28125 45.769531 84.28125 45.984375 C 84.28125 46.238281 83.8125 46.621094 83.253906 46.878906 C 82.441406 47.261719 82.011719 47.21875 81.285156 46.707031 C 80.472656 46.152344 80.214844 46.152344 79.230469 46.664062 C 78.585938 47.003906 77.730469 47.261719 77.34375 47.261719 C 75.929688 47.261719 76.230469 47.984375 78.242188 49.519531 C 80.042969 50.925781 80.597656 51.09375 82.742188 51.09375 C 84.070312 51.09375 85.78125 51.351562 86.550781 51.648438 C 87.921875 52.246094 89.9375 54.71875 90.449219 56.507812 C 90.621094 57.019531 91.179688 57.484375 91.691406 57.570312 C 92.375 57.65625 92.675781 58.125 92.933594 59.320312 C 93.363281 61.277344 94.003906 62.597656 94.605469 62.597656 C 94.859375 62.597656 94.730469 62.171875 94.390625 61.660156 C 93.492188 60.382812 93.53125 57.101562 94.433594 55.78125 C 94.859375 55.183594 95.117188 54.417969 95.074219 54.035156 C 94.945312 53.3125 96.101562 52.074219 96.53125 52.5 C 96.660156 52.585938 97.214844 52.246094 97.773438 51.691406 C 99.058594 50.414062 99.914062 50.414062 101.199219 51.691406 C 101.796875 52.289062 102.699219 52.800781 103.210938 52.882812 C 103.941406 52.96875 104.238281 53.351562 104.324219 54.164062 C 104.410156 54.84375 104.710938 55.355469 105.011719 55.355469 C 105.3125 55.355469 105.996094 55.824219 106.507812 56.378906 C 107.410156 57.316406 107.453125 57.699219 107.195312 60 C 106.980469 62.003906 106.722656 62.640625 106.082031 62.8125 C 105.652344 62.984375 105.140625 62.984375 104.96875 62.898438 C 104.753906 62.769531 104.625 63.535156 104.582031 64.558594 C 104.539062 67.074219 103.167969 68.5625 100.941406 68.5625 C 100.042969 68.5625 99.1875 68.394531 99.058594 68.136719 C 98.886719 67.882812 98.285156 68.09375 97.601562 68.605469 C 96.488281 69.417969 96.230469 69.457031 95.160156 68.90625 C 94.433594 68.5625 93.875 67.925781 93.789062 67.371094 C 93.660156 66.605469 93.53125 66.476562 93.0625 66.859375 C 92.417969 67.414062 90.707031 67.074219 90.707031 66.390625 C 90.707031 66.179688 90.148438 65.496094 89.421875 64.855469 C 87.921875 63.535156 87.707031 61.746094 88.949219 60.511719 C 89.894531 59.574219 89.894531 59.574219 86.851562 58.976562 C 84.710938 58.550781 82.871094 57.316406 81.628906 55.484375 C 79.613281 52.5 76.574219 49.859375 73.320312 48.242188 C 70.535156 46.921875 69.59375 46.664062 66.425781 46.492188 C 59.484375 46.109375 54.003906 48.242188 48.90625 53.226562 C 43.8125 58.210938 41.796875 63.75 42.742188 70.226562 C 42.953125 71.71875 43.167969 72.996094 43.253906 73.039062 C 43.339844 73.121094 43.941406 72.738281 44.582031 72.144531 C 45.738281 71.164062 45.738281 71.078125 45.097656 69.882812 C 44.152344 68.011719 44.28125 65.835938 45.4375 64.558594 C 46.46875 63.367188 49.421875 61.960938 49.722656 62.515625 C 49.851562 62.683594 50.0625 63.878906 50.234375 65.15625 C 50.449219 67.03125 50.320312 67.839844 49.679688 69.074219 L 48.824219 70.695312 L 50.878906 70.695312 C 51.992188 70.695312 53.492188 70.394531 54.175781 70.054688 C 55.246094 69.542969 55.71875 69.5 56.703125 69.882812 C 57.386719 70.183594 58.242188 70.351562 58.671875 70.3125 C 59.058594 70.269531 59.484375 70.4375 59.65625 70.695312 C 59.785156 70.90625 60.34375 71.121094 60.8125 71.121094 C 61.371094 71.121094 62.914062 72.355469 64.796875 74.273438 C 69.421875 79.003906 73.0625 80.492188 79.914062 80.492188 C 84.925781 80.492188 89.550781 79.171875 97.214844 75.59375 C 109.421875 69.84375 117.300781 67.625 125.394531 67.625 L 129.980469 67.625 L 130.578125 63.960938 C 133.191406 47.21875 127.023438 30.046875 113.960938 17.820312 C 106.722656 11.085938 98.585938 6.871094 88.992188 4.867188 C 85.824219 4.1875 76.273438 3.675781 73.789062 4.058594 Z M 88.652344 8.789062 C 91.347656 9.808594 91.433594 10.023438 90.023438 11.515625 C 87.453125 14.199219 85.054688 14.667969 81.714844 13.089844 L 79.785156 12.195312 L 82.742188 11.640625 C 84.367188 11.34375 85.910156 10.960938 86.167969 10.832031 C 86.765625 10.535156 83.125 10.960938 81.714844 11.34375 C 80.683594 11.597656 80.683594 11.597656 81.328125 10.621094 C 82.097656 9.425781 84.539062 8.0625 85.867188 8.0625 C 86.382812 8.0625 87.664062 8.359375 88.652344 8.789062 Z M 78.203125 12.75 C 79.484375 13.386719 80.214844 14.113281 80.855469 15.390625 C 82.957031 19.695312 79.484375 24.808594 74.988281 24.082031 C 70.707031 23.402344 70.835938 23.488281 69.59375 20.929688 C 68.695312 19.140625 68.652344 18.714844 69.035156 16.667969 C 69.378906 15.050781 69.851562 14.070312 70.707031 13.347656 C 71.390625 12.792969 72.078125 12.410156 72.292969 12.535156 C 72.460938 12.664062 72.890625 12.453125 73.191406 12.066406 C 73.832031 11.257812 75.589844 11.515625 78.203125 12.75 Z M 96.703125 15.5625 C 96.703125 15.902344 96.488281 16.074219 96.273438 15.945312 C 96.015625 15.773438 95.929688 15.476562 96.058594 15.261719 C 96.445312 14.667969 96.703125 14.792969 96.703125 15.5625 Z M 94.347656 20.84375 C 94.132812 21.1875 93.875 21.1875 93.617188 20.929688 C 93.363281 20.675781 93.320312 20.25 93.492188 19.992188 C 93.703125 19.652344 93.960938 19.652344 94.21875 19.90625 C 94.476562 20.164062 94.519531 20.589844 94.347656 20.84375 Z M 101.839844 21.355469 C 101.839844 22.039062 101.714844 22.164062 101.371094 21.824219 C 101.113281 21.570312 101.027344 21.144531 101.15625 20.886719 C 101.628906 20.164062 101.839844 20.332031 101.839844 21.355469 Z M 107.410156 25.789062 C 107.410156 26.128906 107.195312 26.296875 106.980469 26.171875 C 106.722656 26 106.636719 25.703125 106.765625 25.488281 C 107.152344 24.890625 107.410156 25.019531 107.410156 25.789062 Z M 97.6875 27.578125 C 97.386719 27.660156 97.128906 28.003906 97.128906 28.34375 C 97.128906 28.8125 96.960938 28.769531 96.402344 28.171875 C 95.71875 27.535156 95.71875 27.363281 96.273438 26.808594 C 96.832031 26.253906 97.003906 26.253906 97.558594 26.808594 C 98.074219 27.277344 98.117188 27.492188 97.6875 27.578125 Z M 70.320312 29.238281 C 70.492188 29.410156 70.878906 29.578125 71.136719 29.578125 C 71.433594 29.621094 72.460938 29.960938 73.449219 30.386719 C 74.945312 31.027344 75.460938 31.582031 76.359375 33.5 C 77.214844 35.246094 77.429688 36.269531 77.257812 37.589844 C 76.917969 40.484375 76.1875 42.105469 75.03125 42.402344 C 74.476562 42.53125 74.003906 42.914062 74.003906 43.214844 C 74.003906 44.023438 70.148438 45.171875 69.207031 44.660156 C 68.78125 44.449219 68.179688 44.277344 67.878906 44.320312 C 66.425781 44.492188 65.652344 44.109375 63.898438 42.234375 C 61.671875 39.890625 61.371094 39.039062 61.757812 35.84375 C 62.097656 32.988281 63.640625 30.730469 65.480469 30.347656 C 66.167969 30.21875 66.9375 29.835938 67.195312 29.535156 C 67.707031 28.898438 69.808594 28.726562 70.320312 29.238281 Z M 90.023438 31.964844 C 90.363281 32.476562 90.835938 32.730469 91.09375 32.605469 C 91.347656 32.433594 91.949219 32.519531 92.460938 32.773438 C 93.148438 33.15625 93.320312 33.542969 93.105469 34.480469 C 92.976562 35.246094 93.105469 35.882812 93.492188 36.183594 C 94.304688 36.863281 94.304688 37.632812 93.492188 39.164062 C 92.847656 40.402344 92.761719 40.402344 90.148438 40.273438 C 88.695312 40.1875 87.367188 40.101562 87.195312 40.058594 C 87.066406 40.019531 86.808594 39.507812 86.636719 38.824219 C 86.507812 38.183594 85.996094 37.460938 85.480469 37.25 C 83.253906 36.226562 83.425781 33.371094 85.78125 32.5625 C 86.507812 32.347656 87.238281 31.921875 87.410156 31.625 C 87.921875 30.773438 89.292969 30.984375 90.023438 31.964844 Z M 114.730469 32.390625 C 118.242188 34.863281 117.859375 39.675781 113.960938 41.507812 C 112.890625 42.019531 112.035156 42.148438 110.921875 41.933594 L 109.335938 41.59375 L 110.835938 41.210938 C 113.875 40.402344 115.375 37.589844 114.261719 34.863281 C 113.574219 33.242188 112.292969 32.347656 110.621094 32.347656 C 109.636719 32.347656 109.464844 32.222656 109.980469 31.921875 C 111.050781 31.242188 113.40625 31.453125 114.730469 32.390625 Z M 60.601562 33.371094 C 61.027344 33.753906 59.828125 36.4375 58.585938 37.972656 C 57.257812 39.589844 55.03125 40.613281 53.363281 40.359375 C 52.460938 40.230469 52.546875 40.058594 54.519531 37.972656 C 56.230469 36.140625 56.402344 35.800781 55.460938 36.226562 C 54.859375 36.480469 53.789062 37.503906 53.148438 38.484375 L 51.949219 40.230469 L 51.820312 38.652344 C 51.648438 36.652344 52.675781 34.691406 54.433594 33.582031 C 55.503906 32.902344 56.273438 32.773438 58.117188 32.945312 C 59.359375 33.074219 60.472656 33.242188 60.601562 33.371094 Z M 99.402344 42.402344 C 99.230469 42.828125 99.015625 42.828125 98.414062 42.488281 C 97.6875 42.019531 97.6875 41.933594 98.328125 41.464844 C 99.144531 40.871094 99.785156 41.464844 99.402344 42.402344 Z M 121.96875 48.625 C 122.484375 49.050781 123.425781 49.390625 124.070312 49.433594 C 125.054688 49.433594 124.96875 49.519531 123.46875 50.074219 C 121.285156 50.882812 121.15625 51.011719 120.726562 53.269531 C 120.386719 55.101562 120.386719 55.144531 120.085938 53.863281 C 119.445312 51.179688 119.058594 50.710938 116.960938 50.074219 C 115.375 49.605469 115.160156 49.433594 116.058594 49.433594 C 118.328125 49.347656 119.316406 48.667969 119.65625 46.960938 C 120.085938 44.535156 120.429688 44.320312 120.726562 46.152344 C 120.898438 47.132812 121.414062 48.15625 121.96875 48.625 Z M 68.523438 48.582031 C 68.90625 48.582031 69.464844 48.878906 69.765625 49.222656 C 70.019531 49.5625 70.621094 49.816406 71.050781 49.816406 C 72.121094 49.816406 74.648438 52.117188 75.160156 53.523438 C 76.445312 57.101562 76.617188 57.914062 76.1875 58.722656 C 75.929688 59.191406 75.71875 59.957031 75.71875 60.425781 C 75.71875 61.832031 74.390625 64.175781 73.320312 64.6875 C 72.761719 64.941406 72.292969 65.324219 72.292969 65.582031 C 72.292969 66.988281 66.382812 68.136719 64.710938 67.03125 C 64.152344 66.6875 63.511719 66.519531 63.296875 66.648438 C 62.613281 67.074219 60.300781 65.625 59.742188 64.386719 C 59.445312 63.792969 58.757812 62.8125 58.203125 62.257812 C 57.601562 61.660156 57.300781 60.980469 57.429688 60.425781 C 57.558594 60 57.472656 59.488281 57.257812 59.359375 C 56.746094 59.0625 56.746094 56.847656 57.257812 55.867188 C 57.515625 55.484375 57.816406 54.589844 57.945312 53.90625 C 58.285156 52.375 60.769531 49.816406 61.882812 49.816406 C 62.355469 49.816406 63.082031 49.433594 63.554688 48.921875 C 64.195312 48.199219 64.667969 48.070312 66.082031 48.28125 C 67.023438 48.410156 68.136719 48.539062 68.523438 48.582031 Z M 83.726562 60.851562 C 84.28125 62.171875 84.28125 62.554688 83.425781 65.242188 C 82.871094 66.816406 82.3125 68.136719 82.140625 68.136719 C 82.011719 68.136719 81.070312 67.414062 80.085938 66.519531 C 78.457031 64.984375 78.285156 64.6875 78.285156 62.769531 C 78.285156 61.363281 78.585938 60.214844 79.230469 59.191406 L 80.171875 57.699219 L 80.515625 60 C 80.726562 61.277344 80.984375 62.429688 81.070312 62.554688 C 81.5 62.941406 81.285156 59.234375 80.8125 58.039062 L 80.386719 56.847656 L 81.753906 58.125 C 82.484375 58.808594 83.382812 60.042969 83.726562 60.851562 Z M 113.960938 61.023438 C 113.832031 61.234375 113.535156 61.191406 113.320312 60.980469 C 113.0625 60.722656 113.019531 60.296875 113.191406 60.042969 C 113.449219 59.660156 113.574219 59.660156 113.875 60.085938 C 114.046875 60.382812 114.089844 60.808594 113.960938 61.023438 Z M 123.425781 62.683594 C 123.769531 62.898438 123.726562 63.023438 123.382812 63.023438 C 123.082031 63.023438 122.828125 63.367188 122.828125 63.75 C 122.828125 64.386719 122.742188 64.347656 122.054688 63.664062 C 121.371094 62.941406 121.371094 62.769531 121.96875 62.171875 C 122.355469 61.789062 122.699219 61.660156 122.785156 61.960938 C 122.871094 62.171875 123.167969 62.515625 123.425781 62.683594 Z M 127.28125 61.703125 C 127.410156 61.917969 127.28125 62.300781 126.9375 62.554688 C 126.507812 62.941406 126.296875 62.898438 126.125 62.429688 C 125.738281 61.492188 126.765625 60.851562 127.28125 61.703125 Z M 84.195312 73.675781 C 84.453125 73.675781 84.238281 74.101562 83.726562 74.613281 C 82.871094 75.507812 82.742188 75.550781 82.484375 74.828125 C 82.3125 74.445312 81.839844 74.101562 81.414062 74.058594 C 80.8125 74.058594 80.855469 73.976562 81.628906 73.675781 C 82.140625 73.464844 82.570312 73.039062 82.570312 72.738281 C 82.613281 72.398438 82.785156 72.441406 83.167969 72.910156 C 83.46875 73.335938 83.941406 73.675781 84.195312 73.675781 Z M 84.195312 73.675781 "/>
<path style=" stroke:none;fill-rule:nonzero;fill:rgb(0%,0%,0%);fill-opacity:1;" d="M 74.089844 16.839844 C 72.933594 17.605469 72.890625 18.375 73.917969 19.269531 C 74.859375 20.121094 76.445312 19.78125 76.789062 18.671875 C 77.300781 17.054688 75.503906 15.816406 74.089844 16.839844 Z M 74.089844 16.839844 "/>
<path style=" stroke:none;fill-rule:nonzero;fill:rgb(0%,0%,0%);fill-opacity:1;" d="M 67.835938 35.585938 C 67.023438 36.394531 66.980469 37.460938 67.707031 38.398438 C 68.695312 39.71875 71.175781 39.378906 71.648438 37.84375 C 72.335938 35.757812 69.378906 34.011719 67.835938 35.585938 Z M 67.835938 35.585938 "/>
<path style=" stroke:none;fill-rule:nonzero;fill:rgb(0%,0%,0%);fill-opacity:1;" d="M 64.839844 55.953125 C 63.46875 57.273438 63.425781 58.765625 64.710938 59.957031 C 66.082031 61.234375 67.75 61.152344 68.863281 59.746094 C 70.320312 57.914062 69.464844 55.695312 67.066406 55.144531 C 66.167969 54.929688 65.652344 55.101562 64.839844 55.953125 Z M 64.839844 55.953125 "/>
<path style=" stroke:none;fill-rule:nonzero;fill:rgb(0%,0%,0%);fill-opacity:1;" d="M 42.527344 17.90625 C 37.902344 22.378906 35.160156 26.128906 32.375 31.710938 C 29.808594 36.78125 28.394531 40.828125 27.324219 45.941406 C 26.210938 51.308594 26.210938 53.140625 27.238281 53.054688 C 27.625 53.054688 28.09375 52.84375 28.222656 52.671875 C 28.351562 52.5 28.90625 52.289062 29.378906 52.246094 C 30.105469 52.203125 30.320312 51.90625 30.320312 51.09375 C 30.320312 49.773438 32.121094 47.898438 33.019531 48.242188 C 33.363281 48.367188 33.917969 49.304688 34.261719 50.285156 L 34.859375 52.117188 L 36.488281 49.179688 C 37.386719 47.558594 38.5 45.769531 38.929688 45.214844 L 39.699219 44.191406 L 37.515625 43.042969 C 34.476562 41.507812 33.617188 39.890625 33.917969 36.054688 C 34.046875 34.480469 34.261719 33.03125 34.390625 32.773438 C 34.859375 32.007812 39.402344 35.585938 40.429688 37.546875 C 40.769531 38.183594 41.027344 39.507812 41.027344 40.527344 L 41.027344 42.359375 L 42.011719 40.871094 C 42.527344 40.058594 44.796875 37.503906 47.066406 35.117188 C 51.476562 30.558594 51.992188 29.792969 53.703125 25.019531 C 54.347656 23.316406 55.289062 21.226562 55.847656 20.375 L 56.832031 18.84375 L 54.089844 18.628906 C 50.921875 18.375 48.949219 17.351562 47.582031 15.347656 L 46.59375 13.898438 Z M 45.910156 20.71875 C 46.082031 20.929688 46.382812 21.058594 46.507812 21.101562 C 47.792969 21.3125 49.679688 22.378906 50.234375 23.273438 C 50.664062 23.871094 51.050781 25.445312 51.175781 26.765625 C 51.390625 28.941406 51.304688 29.324219 50.234375 30.558594 C 49.59375 31.324219 48.824219 31.921875 48.523438 31.921875 C 48.222656 31.921875 47.75 32.222656 47.453125 32.5625 C 46.851562 33.242188 43.511719 33.15625 43.253906 32.433594 C 43.167969 32.179688 42.871094 32.050781 42.570312 32.179688 C 42.011719 32.390625 39.359375 29.960938 39.273438 29.195312 C 39.273438 28.941406 39.1875 28.257812 39.058594 27.703125 C 38.972656 27.109375 39.1875 25.746094 39.570312 24.59375 C 40.128906 22.847656 40.558594 22.378906 42.226562 21.527344 C 44.324219 20.417969 45.394531 20.207031 45.910156 20.71875 Z M 45.910156 20.71875 "/>
<path style=" stroke:none;fill-rule:nonzero;fill:rgb(0%,0%,0%);fill-opacity:1;" d="M 43.511719 26.171875 C 42.914062 27.535156 43.726562 28.597656 45.226562 28.429688 C 46.808594 28.214844 47.410156 27.066406 46.425781 26 C 45.3125 24.808594 44.109375 24.890625 43.511719 26.171875 Z M 43.511719 26.171875 "/>
<path style=" stroke:none;fill-rule:nonzero;fill:rgb(0%,0%,0%);fill-opacity:1;" d="M 142.097656 16.371094 C 141.671875 17.949219 141.628906 18.671875 142.011719 19.738281 C 142.613281 21.398438 142.699219 26.085938 142.140625 25.871094 C 141.882812 25.789062 141.285156 25.105469 140.726562 24.296875 C 139.828125 23.019531 136.230469 20.546875 135.847656 20.972656 C 135.71875 21.058594 136.273438 22.082031 137.046875 23.230469 C 138.203125 24.890625 138.84375 25.402344 140.515625 25.914062 L 142.527344 26.554688 L 142.527344 30.730469 C 142.527344 33.03125 142.398438 34.90625 142.183594 34.90625 C 142.011719 34.90625 141.414062 34.011719 140.855469 32.945312 C 139.914062 31.242188 136.359375 28.128906 135.847656 28.597656 C 135.761719 28.726562 136.1875 29.835938 136.875 31.113281 C 137.859375 33.074219 138.371094 33.582031 140.300781 34.4375 C 142.226562 35.332031 142.527344 35.671875 142.527344 36.695312 C 142.527344 37.800781 142.398438 37.886719 140.855469 37.886719 L 139.1875 37.886719 L 138.5 40.65625 C 138.074219 42.445312 137.816406 45.214844 137.816406 48.667969 L 137.816406 53.949219 L 139.402344 56.335938 C 140.257812 57.65625 141.070312 58.679688 141.15625 58.59375 C 141.242188 58.507812 140.769531 57.144531 140.128906 55.570312 C 139.058594 52.800781 139.015625 52.417969 139.1875 47.089844 C 139.316406 44.023438 139.613281 40.953125 139.914062 40.316406 C 140.34375 39.164062 140.472656 39.121094 143.039062 39.25 L 145.738281 39.378906 L 146.253906 41.507812 C 146.550781 42.660156 146.9375 45.554688 147.066406 47.898438 C 147.324219 52.074219 147.324219 52.246094 145.996094 55.3125 C 145.226562 57.019531 144.710938 58.507812 144.839844 58.636719 C 144.96875 58.765625 145.824219 57.65625 146.765625 56.207031 C 148.480469 53.609375 148.523438 53.394531 148.523438 49.859375 C 148.523438 46.109375 148.09375 42.785156 147.238281 39.632812 C 146.765625 37.929688 146.722656 37.886719 144.882812 37.886719 L 142.957031 37.886719 L 142.957031 29.195312 C 142.957031 24.464844 143.125 19.992188 143.382812 19.3125 C 143.683594 18.417969 143.640625 17.519531 143.253906 16.199219 L 142.65625 14.324219 Z M 142.097656 16.371094 "/>
<path style=" stroke:none;fill-rule:nonzero;fill:rgb(0%,0%,0%);fill-opacity:1;" d="M 147.152344 22.675781 C 146.125 23.445312 144.882812 24.890625 144.324219 25.828125 L 143.339844 27.621094 L 144.710938 27.234375 C 146.425781 26.722656 147.921875 25.359375 148.992188 23.316406 C 150.320312 20.71875 149.894531 20.589844 147.152344 22.675781 Z M 147.152344 22.675781 "/>
<path style=" stroke:none;fill-rule:nonzero;fill:rgb(0%,0%,0%);fill-opacity:1;" d="M 12.078125 26.382812 C 12.207031 27.917969 12.417969 29.921875 12.589844 30.855469 L 12.847656 32.5625 L 11.777344 31.070312 C 10.835938 29.75 9.421875 28.515625 7.707031 27.492188 C 7.367188 27.277344 7.496094 27.960938 8.050781 29.453125 C 8.609375 30.898438 9.59375 32.347656 10.792969 33.414062 C 12.417969 34.90625 12.589844 35.246094 12.292969 36.269531 C 11.992188 37.460938 11.992188 37.460938 14.132812 37.460938 L 16.273438 37.460938 L 16.101562 36.140625 C 15.929688 34.949219 16.101562 34.648438 17.945312 33.371094 C 19.058594 32.5625 20.257812 31.285156 20.597656 30.515625 C 21.757812 28.128906 22.183594 26.808594 21.796875 26.808594 C 20.898438 26.808594 17.046875 30.816406 16.144531 32.648438 L 15.117188 34.691406 L 14.988281 33.285156 C 14.902344 32.519531 15.03125 30.898438 15.289062 29.75 C 16.058594 26.214844 15.886719 25.445312 14.773438 27.578125 L 13.789062 29.410156 L 13.234375 27.152344 C 12.335938 23.570312 11.820312 23.230469 12.078125 26.382812 Z M 12.078125 26.382812 "/>
<path style=" stroke:none;fill-rule:nonzero;fill:rgb(0%,0%,0%);fill-opacity:1;" d="M 36.746094 37.589844 C 36.746094 38.3125 38.414062 41.125 39.359375 41.933594 L 40.300781 42.785156 L 39.359375 41.082031 C 38.246094 39.082031 36.789062 37.121094 36.746094 37.589844 Z M 36.746094 37.589844 "/>
<path style=" stroke:none;fill-rule:nonzero;fill:rgb(0%,0%,0%);fill-opacity:1;" d="M 5.953125 39.976562 C 7.367188 41.59375 8.136719 42.0625 10.964844 42.957031 L 12.335938 43.382812 L 12.292969 41.808594 C 12.25 40.953125 12.164062 40.527344 12.035156 40.953125 C 11.90625 41.550781 11.691406 41.507812 10.75 40.613281 C 9.808594 39.71875 6.210938 38.3125 4.925781 38.3125 C 4.710938 38.3125 5.183594 39.082031 5.953125 39.976562 Z M 5.953125 39.976562 "/>
<path style=" stroke:none;fill-rule:nonzero;fill:rgb(0%,0%,0%);fill-opacity:1;" d="M 12.890625 38.613281 C 13.53125 38.695312 14.5625 38.695312 15.246094 38.613281 C 15.886719 38.527344 15.332031 38.441406 14.046875 38.441406 C 12.761719 38.441406 12.207031 38.527344 12.890625 38.613281 Z M 12.890625 38.613281 "/>
<path style=" stroke:none;fill-rule:nonzero;fill:rgb(0%,0%,0%);fill-opacity:1;" d="M 21.585938 40.230469 C 20.214844 40.785156 18.414062 41.890625 17.601562 42.617188 L 16.1875 44.023438 L 16.1875 40.445312 L 12.804688 40.445312 L 12.933594 46.578125 C 13.0625 51.777344 12.976562 52.800781 12.417969 53.011719 C 12.078125 53.140625 11.734375 53.183594 11.691406 53.140625 C 10.019531 50.328125 8.78125 48.539062 8.652344 48.667969 C 8.566406 48.753906 8.695312 49.519531 8.949219 50.371094 C 9.679688 53.097656 10.535156 57.914062 10.234375 57.871094 C 10.105469 57.871094 9.035156 56.378906 7.835938 54.632812 C 6.425781 52.5 4.710938 50.585938 2.828125 49.136719 L 0 46.878906 L 1.328125 49.816406 C 2.996094 53.566406 4.453125 55.355469 7.664062 57.527344 C 9.980469 59.0625 10.191406 59.359375 10.191406 60.765625 L 10.191406 62.300781 L 9.121094 61.191406 C 8.523438 60.597656 6.851562 59.53125 5.480469 58.808594 L 2.914062 57.527344 L 3.597656 58.890625 C 4.753906 61.191406 6.808594 62.984375 9.078125 63.707031 C 10.277344 64.089844 11.519531 64.644531 11.863281 64.898438 C 12.335938 65.242188 12.292969 65.027344 11.777344 64.003906 C 11.007812 62.554688 10.792969 58.976562 11.433594 58.550781 C 11.648438 58.421875 11.949219 58.765625 12.035156 59.277344 C 12.164062 59.828125 12.207031 58.765625 12.207031 56.933594 C 12.121094 54.25 12.25 53.652344 12.761719 53.652344 C 13.320312 53.652344 13.40625 54.121094 13.148438 56.71875 C 12.632812 61.449219 12.71875 65.070312 13.234375 65.410156 C 13.574219 65.582031 13.363281 65.921875 12.71875 66.261719 L 11.691406 66.816406 L 12.976562 66.902344 L 14.261719 66.945312 L 12.976562 67.285156 C 12.035156 67.542969 11.949219 67.625 12.589844 67.667969 C 13.105469 67.667969 14.089844 67.839844 14.816406 67.96875 L 16.144531 68.222656 L 16.273438 65.792969 L 16.402344 63.324219 L 18.457031 62.8125 C 20.597656 62.257812 21.839844 61.320312 23.984375 58.679688 L 25.226562 57.058594 L 23.554688 57.65625 C 21.027344 58.550781 19.359375 59.488281 17.6875 60.9375 C 16.058594 62.34375 15.761719 62.003906 16.660156 59.746094 C 16.917969 59.105469 17.515625 57.1875 17.945312 55.570312 C 18.714844 52.585938 18.714844 52.585938 17.902344 53.652344 C 17.429688 54.25 16.875 55.269531 16.660156 55.996094 C 16.359375 56.890625 16.273438 55.441406 16.316406 51.136719 L 16.402344 45.003906 L 18.285156 44.449219 C 20.171875 43.894531 21.96875 42.488281 23.554688 40.316406 C 23.984375 39.675781 24.324219 39.164062 24.238281 39.164062 C 24.152344 39.164062 22.953125 39.632812 21.585938 40.230469 Z M 21.585938 40.230469 "/>
<path style=" stroke:none;fill-rule:nonzero;fill:rgb(0%,0%,0%);fill-opacity:1;" d="M 38.414062 52.417969 C 37.386719 53.949219 34.605469 59.53125 34.605469 60.042969 C 34.605469 60.296875 35.886719 60.46875 37.816406 60.46875 C 39.570312 60.46875 41.027344 60.296875 41.027344 60.128906 C 41.027344 59.914062 40.726562 58.722656 40.34375 57.445312 C 39.957031 56.164062 39.527344 54.289062 39.359375 53.269531 L 39.101562 51.351562 Z M 38.414062 52.417969 "/>
<path style=" stroke:none;fill-rule:nonzero;fill:rgb(0%,0%,0%);fill-opacity:1;" d="M 83.382812 54.035156 C 83.984375 54.460938 85.011719 55.183594 85.738281 55.613281 L 87.066406 56.335938 L 86.210938 55.398438 C 85.351562 54.417969 83.382812 53.226562 82.699219 53.226562 C 82.527344 53.226562 82.828125 53.609375 83.382812 54.035156 Z M 83.382812 54.035156 "/>
<path style=" stroke:none;fill-rule:nonzero;fill:rgb(0%,0%,0%);fill-opacity:1;" d="M 26.980469 55.355469 C 25.824219 57.273438 26.679688 65.710938 28.652344 71.757812 C 29.765625 75.039062 32.417969 81.261719 31.820312 79.085938 C 30.664062 74.953125 30.234375 71.078125 30.449219 66.519531 C 30.535156 63.792969 30.792969 61.109375 30.964844 60.554688 C 31.21875 59.746094 31.136719 59.617188 30.148438 59.617188 C 27.707031 59.617188 26.382812 56.464844 28.265625 55.183594 C 29.164062 54.546875 29.164062 54.503906 28.394531 54.503906 C 27.921875 54.503906 27.28125 54.886719 26.980469 55.355469 Z M 26.980469 55.355469 "/>
<path style=" stroke:none;fill-rule:nonzero;fill:rgb(0%,0%,0%);fill-opacity:1;" d="M 97.6875 57.359375 C 96.273438 57.527344 94.945312 58.851562 95.03125 60.042969 C 95.03125 60.597656 95.074219 60.597656 95.289062 60.042969 C 95.71875 58.851562 96.832031 57.914062 97.816406 57.914062 C 98.371094 57.914062 98.929688 57.699219 99.058594 57.484375 C 99.1875 57.230469 99.273438 57.101562 99.1875 57.144531 C 99.101562 57.144531 98.414062 57.273438 97.6875 57.359375 Z M 97.6875 57.359375 "/>
<path style=" stroke:none;fill-rule:nonzero;fill:rgb(0%,0%,0%);fill-opacity:1;" d="M 99.527344 57.871094 C 99.402344 58.082031 99.570312 58.464844 99.914062 58.765625 C 100.769531 59.445312 100.726562 61.492188 99.871094 62.214844 C 99.484375 62.515625 98.414062 62.898438 97.429688 63.066406 L 95.632812 63.324219 L 97.171875 63.410156 C 100.085938 63.492188 102.269531 60.339844 100.34375 58.765625 C 100 58.464844 99.828125 58.082031 99.957031 57.871094 C 100.085938 57.65625 100.085938 57.488281 99.957031 57.488281 C 99.828125 57.488281 99.65625 57.65625 99.527344 57.871094 Z M 99.527344 57.871094 "/>
<path style=" stroke:none;fill-rule:nonzero;fill:rgb(0%,0%,0%);fill-opacity:1;" d="M 101.414062 58.976562 C 101.96875 59.574219 102.527344 60.042969 102.613281 60.042969 C 102.742188 60.042969 102.398438 59.574219 101.839844 58.976562 C 101.285156 58.382812 100.726562 57.914062 100.640625 57.914062 C 100.515625 57.914062 100.855469 58.382812 101.414062 58.976562 Z M 101.414062 58.976562 "/>
<path style=" stroke:none;fill-rule:nonzero;fill:rgb(0%,0%,0%);fill-opacity:1;" d="M 33.789062 64.132812 C 33.191406 68.308594 33.191406 71.71875 33.917969 76.660156 C 34.691406 82.199219 36.617188 86.671875 39.742188 90.292969 C 40.515625 91.1875 40.640625 91.230469 40.386719 90.507812 C 39.101562 86.628906 39.058594 81.21875 40.300781 78.277344 C 40.855469 76.957031 40.855469 76.488281 40.300781 74.484375 C 39.914062 73.039062 39.65625 70.140625 39.613281 66.648438 C 39.570312 62.554688 39.484375 61.578125 39.230469 62.898438 C 38.246094 68.179688 38.074219 68.480469 38.203125 64.730469 L 38.328125 61.109375 L 37.773438 63.238281 C 37.257812 65.324219 37.257812 65.324219 37.128906 63.878906 C 37.089844 63.066406 37.042969 62.128906 37.042969 61.789062 C 37.089844 61.492188 36.917969 61.40625 36.746094 61.578125 C 36.53125 61.789062 36.273438 63.023438 36.1875 64.304688 L 36.058594 66.648438 L 35.972656 63.878906 C 35.886719 61.449219 35.761719 61.066406 35.074219 61.023438 C 34.390625 60.980469 34.21875 61.449219 33.789062 64.132812 Z M 33.789062 64.132812 "/>
<path style=" stroke:none;fill-rule:nonzero;fill:rgb(0%,0%,0%);fill-opacity:1;" d="M 143.46875 65.15625 C 145.097656 65.285156 146.507812 65.539062 146.636719 65.667969 C 146.765625 65.835938 145.738281 65.835938 144.367188 65.710938 C 142.996094 65.582031 141.199219 65.710938 140.386719 65.964844 C 139.144531 66.347656 139.613281 66.390625 143.253906 66.304688 C 147.792969 66.222656 148.394531 66.519531 145.394531 67.328125 C 143.339844 67.925781 142.011719 67.882812 140.085938 67.242188 C 138.414062 66.730469 138.285156 66.136719 139.65625 65.582031 C 140.597656 65.199219 140.597656 65.199219 139.699219 65.199219 C 138.160156 65.15625 137.644531 66.261719 137.472656 70.3125 C 137.300781 73.761719 137.386719 74.316406 138.457031 76.445312 L 139.570312 78.789062 L 142.699219 78.789062 C 146.210938 78.789062 146.894531 78.363281 147.921875 75.507812 C 148.480469 73.847656 148.738281 68.265625 148.265625 66.5625 C 147.921875 65.367188 145.824219 64.730469 142.742188 64.773438 C 140.726562 64.855469 140.769531 64.855469 143.46875 65.15625 Z M 143.46875 65.15625 "/>
<path style=" stroke:none;fill-rule:nonzero;fill:rgb(0%,0%,0%);fill-opacity:1;" d="M 2.441406 67.96875 C 3.253906 69.417969 5.183594 71.757812 7.023438 73.507812 C 8.78125 75.167969 10.191406 76.785156 10.191406 77.085938 C 10.191406 77.46875 9.894531 77.382812 9.25 76.785156 C 7.582031 75.296875 2.570312 73.164062 3.167969 74.230469 C 4.710938 76.914062 7.023438 78.789062 8.863281 78.789062 C 9.980469 78.789062 11.820312 79.640625 12.035156 80.238281 C 12.25 80.878906 12.035156 79.8125 11.519531 77.722656 C 11.261719 76.785156 10.921875 75.039062 10.75 73.890625 C 10.449219 71.757812 10.449219 71.757812 10.191406 73.25 C 9.894531 74.742188 9.894531 74.742188 9.421875 73.675781 C 8.007812 70.523438 5.4375 67.796875 2.3125 66.136719 L 1.070312 65.496094 Z M 2.441406 67.96875 "/>
<path style=" stroke:none;fill-rule:nonzero;fill:rgb(0%,0%,0%);fill-opacity:1;" d="M 46.851562 68.179688 C 46.507812 69.96875 46.851562 70.3125 47.238281 68.5625 C 47.410156 67.839844 47.453125 67.117188 47.324219 67.03125 C 47.238281 66.902344 47.023438 67.457031 46.851562 68.179688 Z M 46.851562 68.179688 "/>
<path style=" stroke:none;fill-rule:nonzero;fill:rgb(0%,0%,0%);fill-opacity:1;" d="M 13.535156 68.863281 C 14.046875 68.949219 14.816406 68.949219 15.246094 68.863281 C 15.632812 68.734375 15.203125 68.648438 14.261719 68.691406 C 13.320312 68.691406 12.976562 68.777344 13.535156 68.863281 Z M 13.535156 68.863281 "/>
<path style=" stroke:none;fill-rule:nonzero;fill:rgb(0%,0%,0%);fill-opacity:1;" d="M 11.90625 69.925781 C 11.90625 70.140625 12.121094 70.269531 12.335938 70.269531 C 12.589844 70.269531 12.761719 72.910156 12.761719 77.339844 C 12.761719 81.898438 12.632812 84.285156 12.335938 84.117188 C 12.121094 83.988281 11.90625 84.074219 11.90625 84.285156 C 11.90625 84.542969 12.207031 84.753906 12.589844 84.753906 C 13.191406 84.753906 13.277344 85.09375 13.019531 86.714844 C 12.890625 87.820312 12.761719 90.804688 12.761719 93.359375 C 12.761719 96.34375 12.589844 97.921875 12.335938 97.75 C 12.121094 97.621094 11.90625 97.707031 11.90625 97.921875 C 11.90625 98.175781 12.164062 98.390625 12.460938 98.390625 C 12.847656 98.390625 12.933594 99.496094 12.847656 102.820312 C 12.71875 106.953125 12.761719 107.292969 13.574219 107.761719 C 14.21875 108.101562 14.730469 108.101562 15.332031 107.761719 C 16.144531 107.335938 16.1875 106.867188 16.1875 100.988281 C 16.1875 96.429688 16.359375 94.554688 16.746094 94.214844 C 17.003906 94 18.117188 93.660156 19.1875 93.488281 C 21.628906 93.105469 22.914062 92.421875 24.496094 90.761719 L 25.78125 89.441406 L 23.640625 89.695312 C 21.457031 89.996094 18.328125 91.402344 18.328125 92.167969 C 18.328125 92.382812 18.242188 92.464844 18.117188 92.339844 C 17.558594 91.828125 18.585938 90.550781 20.855469 89.058594 C 23.898438 86.96875 24.324219 86.457031 26.382812 82.753906 L 28.09375 79.726562 L 26.082031 80.921875 C 23.554688 82.496094 20.855469 85.265625 19.441406 87.738281 L 18.328125 89.652344 L 18.285156 87.949219 C 18.285156 86.5 18.203125 86.375 17.902344 87.183594 C 17.6875 87.738281 17.386719 89.144531 17.214844 90.378906 C 16.660156 94.808594 16.1875 93.914062 16.316406 88.589844 L 16.402344 83.261719 L 18.972656 81.855469 C 20.515625 81.003906 22.097656 79.683594 22.953125 78.535156 L 24.367188 76.617188 L 21.839844 77.894531 C 20.429688 78.621094 18.585938 79.984375 17.6875 81.003906 L 16.144531 82.835938 L 16.1875 80.066406 C 16.230469 78.535156 16.230469 75.507812 16.230469 73.335938 L 16.1875 69.375 L 14.046875 69.5 C 12.890625 69.585938 11.90625 69.757812 11.90625 69.925781 Z M 11.90625 69.925781 "/>
<path style=" stroke:none;fill-rule:nonzero;fill:rgb(0%,0%,0%);fill-opacity:1;" d="M 48.394531 71.972656 C 46.167969 72.484375 43.941406 74.527344 42.527344 77.296875 C 41.371094 79.640625 41.242188 80.238281 41.242188 84.117188 C 41.242188 89.144531 42.441406 93.148438 44.753906 95.832031 C 46.210938 97.535156 51.007812 101.15625 53.320312 102.394531 L 54.648438 103.03125 L 53.363281 100.6875 C 52.460938 99.027344 52.035156 97.578125 51.90625 95.703125 L 51.734375 93.0625 L 52.378906 95.363281 C 53.617188 99.667969 56.703125 103.84375 59.785156 105.417969 L 61.242188 106.101562 L 59.527344 103.84375 C 58.585938 102.605469 57.601562 101.117188 57.300781 100.519531 C 56.660156 99.28125 57.003906 99.582031 59.1875 102.265625 C 60.042969 103.375 61.542969 104.78125 62.484375 105.417969 C 64.28125 106.695312 70.75 108.613281 72.933594 108.570312 C 74.089844 108.570312 74.132812 108.527344 73.40625 108.058594 C 71.21875 106.695312 69.722656 104.949219 68.265625 102.09375 C 66.765625 99.15625 66.679688 98.773438 66.679688 94.9375 C 66.679688 92.722656 66.765625 88.546875 66.9375 85.605469 C 67.152344 81.386719 67.066406 79.941406 66.550781 78.578125 L 65.910156 76.871094 L 65.867188 78.363281 C 65.824219 79.171875 65.738281 80.023438 65.652344 80.28125 C 65.609375 80.492188 65.523438 81.046875 65.523438 81.429688 C 65.394531 82.667969 62.441406 85.605469 61.328125 85.605469 C 60.8125 85.605469 60.214844 85.820312 60.085938 86.074219 C 59.914062 86.332031 59.1875 86.457031 58.414062 86.417969 C 57.6875 86.332031 56.832031 86.417969 56.53125 86.628906 C 56.230469 86.800781 55.375 86.757812 54.605469 86.5 C 53.875 86.246094 52.761719 85.949219 52.164062 85.863281 C 51.007812 85.605469 50.363281 85.09375 48.4375 82.667969 C 47.539062 81.558594 47.28125 80.707031 47.152344 78.621094 C 46.980469 76.148438 47.066406 75.808594 48.523438 73.761719 C 49.335938 72.527344 49.980469 71.546875 49.9375 71.589844 C 49.851562 71.632812 49.164062 71.800781 48.394531 71.972656 Z M 66.082031 86.757812 C 65.953125 88.375 65.738281 90.507812 65.609375 91.570312 C 65.394531 93.703125 64.367188 94.722656 62.3125 94.808594 L 61.070312 94.894531 L 62.3125 94.128906 C 62.953125 93.746094 63.855469 93.019531 64.28125 92.550781 C 64.925781 91.785156 64.96875 91.65625 64.410156 91.445312 C 64.027344 91.273438 63.039062 91.484375 62.183594 91.828125 C 61.328125 92.167969 60.515625 92.382812 60.386719 92.253906 C 60.257812 92.125 60.34375 91.996094 60.554688 91.996094 C 60.8125 91.996094 61.371094 91.699219 61.839844 91.359375 C 62.613281 90.804688 62.613281 90.761719 61.585938 90.976562 C 60.726562 91.144531 60.8125 91.019531 62.097656 90.207031 C 62.996094 89.652344 63.726562 89.058594 63.726562 88.886719 C 63.726562 88.675781 63.511719 88.675781 63.296875 88.800781 C 62.484375 89.3125 60.300781 89.824219 60.515625 89.441406 C 60.640625 89.269531 60 89.183594 59.144531 89.3125 C 58.242188 89.398438 56.660156 89.226562 55.589844 88.886719 L 53.660156 88.25 L 56.660156 88.207031 C 60.085938 88.121094 62.441406 87.269531 64.367188 85.265625 C 65.097656 84.542969 65.824219 83.902344 66.039062 83.902344 C 66.210938 83.902344 66.253906 85.179688 66.082031 86.757812 Z M 64.796875 96.257812 C 64.367188 96.726562 63.855469 97.109375 63.640625 97.109375 C 63.210938 97.109375 64.667969 95.492188 65.183594 95.449219 C 65.394531 95.40625 65.226562 95.789062 64.796875 96.257812 Z M 64.796875 96.257812 "/>
<path style=" stroke:none;fill-rule:nonzero;fill:rgb(0%,0%,0%);fill-opacity:1;" d="M 18.671875 73.378906 C 17.515625 74.359375 16.617188 75.808594 16.617188 76.703125 C 16.617188 77.554688 18.328125 75.765625 19.230469 73.976562 C 19.699219 73.121094 20 72.398438 19.957031 72.398438 C 19.871094 72.398438 19.316406 72.824219 18.671875 73.378906 Z M 18.671875 73.378906 "/>
<path style=" stroke:none;fill-rule:nonzero;fill:rgb(0%,0%,0%);fill-opacity:1;" d="M 112.417969 75.382812 C 107.792969 76.359375 106.894531 76.660156 97.902344 80.453125 C 88.90625 84.199219 86.507812 84.839844 80.984375 84.925781 C 78.03125 84.96875 76.917969 85.09375 77.558594 85.351562 C 78.074219 85.5625 80.257812 85.691406 82.355469 85.691406 C 86.550781 85.691406 89.851562 84.882812 94.988281 82.539062 C 106.765625 77.214844 113.449219 75.59375 121.882812 75.933594 C 124.753906 76.0625 127.109375 76.0625 127.109375 76.019531 C 127.109375 75.933594 127.238281 75.59375 127.367188 75.210938 C 127.75 74.1875 117.515625 74.316406 112.417969 75.382812 Z M 112.417969 75.382812 "/>
<path style=" stroke:none;fill-rule:nonzero;fill:rgb(0%,0%,0%);fill-opacity:1;" d="M 54.519531 76.871094 C 53.277344 78.066406 53.191406 78.660156 54.132812 79.984375 C 55.074219 81.347656 57.902344 81.304688 58.800781 79.898438 C 59.914062 78.191406 58.414062 75.808594 56.230469 75.808594 C 55.847656 75.808594 55.074219 76.277344 54.519531 76.871094 Z M 54.519531 76.871094 "/>
<path style=" stroke:none;fill-rule:nonzero;fill:rgb(0%,0%,0%);fill-opacity:1;" d="M 119.101562 79.515625 C 119.699219 80.066406 124.710938 80.878906 125.140625 80.453125 C 125.652344 79.984375 124.925781 79.769531 121.542969 79.429688 C 120 79.257812 118.929688 79.300781 119.101562 79.515625 Z M 119.101562 79.515625 "/>
<path style=" stroke:none;fill-rule:nonzero;fill:rgb(0%,0%,0%);fill-opacity:1;" d="M 68.609375 81.132812 C 68.738281 81.601562 69.121094 83.390625 69.507812 85.050781 C 71.5625 94.085938 81.242188 99.496094 91.5625 97.367188 C 93.875 96.898438 96.832031 95.703125 102.054688 93.105469 C 110.0625 89.144531 113.660156 87.863281 118.285156 87.480469 C 121.199219 87.226562 122.398438 86.757812 122.398438 85.992188 C 122.398438 85.4375 117.601562 85.5625 112.71875 86.246094 C 108.308594 86.84375 100.472656 89.144531 96.445312 90.933594 C 93.363281 92.339844 88.695312 93.703125 87.109375 93.660156 C 85.953125 93.660156 86.125 93.53125 88.136719 92.890625 C 89.421875 92.507812 93.40625 90.71875 96.917969 88.929688 C 103.425781 85.691406 108.824219 83.519531 110.535156 83.433594 C 111.050781 83.433594 111.261719 83.304688 110.964844 83.222656 C 109.679688 82.667969 105.054688 84.117188 99.699219 86.714844 C 91.519531 90.71875 89.679688 91.273438 84.496094 91.273438 C 81.714844 91.273438 79.613281 91.058594 78.5 90.632812 L 76.789062 89.996094 L 80.171875 90.207031 C 84.453125 90.464844 88.863281 89.695312 92.546875 88.078125 C 94.132812 87.351562 95.375 86.714844 95.289062 86.628906 C 95.246094 86.542969 93.746094 86.925781 91.992188 87.394531 C 87.625 88.632812 79.527344 88.71875 76.273438 87.609375 C 73.703125 86.714844 70.492188 84.074219 69.25 81.816406 C 68.78125 80.960938 68.523438 80.664062 68.609375 81.132812 Z M 68.609375 81.132812 "/>
<path style=" stroke:none;fill-rule:nonzero;fill:rgb(0%,0%,0%);fill-opacity:1;" d="M 8.050781 85.222656 C 8.050781 85.351562 8.265625 86.117188 8.523438 86.925781 C 9.378906 89.355469 12.335938 92.082031 12.335938 90.378906 C 12.335938 89.695312 8.136719 84.582031 8.050781 85.222656 Z M 8.050781 85.222656 "/>
<path style=" stroke:none;fill-rule:nonzero;fill:rgb(0%,0%,0%);fill-opacity:1;" d="M 68.050781 89.953125 L 68.007812 94.042969 L 70.277344 96.046875 C 73.148438 98.601562 79.527344 101.542969 84.753906 102.691406 C 87.707031 103.375 90.320312 103.628906 94.5625 103.628906 C 102.011719 103.671875 104.496094 103.117188 108.222656 100.605469 C 109.851562 99.496094 111.136719 98.558594 111.09375 98.515625 C 111.007812 98.429688 108.394531 98.6875 105.226562 99.027344 C 94.390625 100.222656 82.441406 99.625 77.859375 97.621094 C 73.40625 95.703125 70.664062 92.851562 69.035156 88.460938 L 68.050781 85.820312 Z M 68.050781 89.953125 "/>
<path style=" stroke:none;fill-rule:nonzero;fill:rgb(0%,0%,0%);fill-opacity:1;" d="M 137.214844 86.628906 C 137.644531 86.96875 138.203125 87.097656 138.457031 86.882812 C 139.484375 86.074219 144.410156 87.183594 146.339844 88.632812 L 147.324219 89.441406 L 146.125 89.910156 C 143.425781 90.976562 138.628906 91.316406 135.417969 90.632812 L 132.335938 90.039062 L 131.949219 92.636719 L 131.519531 95.191406 L 131.433594 92.039062 C 131.390625 89.441406 131.476562 88.972656 132.035156 89.183594 C 132.417969 89.3125 132.675781 89.183594 132.675781 88.84375 C 132.675781 88.207031 133.574219 87.738281 134.816406 87.738281 C 135.246094 87.738281 135.675781 87.4375 135.847656 87.097656 C 136.144531 86.289062 135.246094 86.289062 133.320312 87.054688 C 131.261719 87.949219 130.535156 89.613281 130.535156 93.574219 C 130.535156 97.367188 131.734375 100.5625 133.703125 102.136719 L 134.859375 103.03125 L 133.875 103.160156 C 133.105469 103.289062 133.320312 103.457031 134.816406 103.882812 C 137.085938 104.566406 144.453125 104.3125 145.226562 103.542969 C 145.566406 103.203125 145.4375 103.074219 144.710938 103.074219 C 143.8125 103.074219 143.855469 102.988281 145.269531 101.625 C 147.496094 99.582031 148.222656 97.492188 148.222656 93.445312 C 148.222656 88.800781 147.664062 87.738281 144.667969 86.800781 C 143.382812 86.417969 140.984375 86.074219 139.359375 86.074219 C 136.660156 86.03125 136.445312 86.074219 137.214844 86.628906 Z M 138.160156 92.296875 C 137.730469 92.382812 137.046875 92.382812 136.660156 92.296875 C 136.230469 92.167969 136.574219 92.082031 137.386719 92.082031 C 138.203125 92.082031 138.542969 92.167969 138.160156 92.296875 Z M 138.160156 92.296875 "/>
<path style=" stroke:none;fill-rule:nonzero;fill:rgb(0%,0%,0%);fill-opacity:1;" d="M 114.902344 89.441406 C 111.90625 90.082031 109.550781 91.019531 104.195312 93.660156 C 100.429688 95.535156 96.574219 97.367188 95.632812 97.75 C 93.960938 98.386719 94.046875 98.386719 98.628906 98.175781 C 101.242188 98.046875 105.609375 97.621094 108.394531 97.238281 L 113.492188 96.554688 L 116.875 92.890625 C 118.714844 90.890625 120.257812 89.101562 120.257812 88.929688 C 120.257812 88.460938 119.273438 88.546875 114.902344 89.441406 Z M 114.902344 89.441406 "/>
<path style=" stroke:none;fill-rule:nonzero;fill:rgb(0%,0%,0%);fill-opacity:1;" d="M 5.480469 92.382812 C 5.480469 93.191406 8.863281 95.746094 10.320312 96.003906 C 11.21875 96.171875 11.90625 96.515625 11.90625 96.769531 C 11.90625 97.023438 12.035156 97.152344 12.164062 96.984375 C 12.292969 96.855469 11.863281 96.046875 11.175781 95.191406 C 9.59375 93.191406 5.480469 91.144531 5.480469 92.382812 Z M 5.480469 92.382812 "/>
<path style=" stroke:none;fill-rule:nonzero;fill:rgb(0%,0%,0%);fill-opacity:1;" d="M 68.4375 97.75 C 68.4375 97.921875 68.992188 99.242188 69.722656 100.730469 C 71.175781 103.800781 73.746094 106.355469 77.046875 108.019531 C 79.273438 109.125 79.527344 109.167969 84.070312 108.871094 C 86.636719 108.742188 89.9375 108.359375 91.347656 108.058594 L 93.917969 107.507812 L 92.207031 107.207031 C 91.261719 107.039062 89.808594 106.910156 88.949219 106.910156 C 86.339844 106.910156 79.316406 104.90625 76.230469 103.289062 C 74.605469 102.4375 72.207031 100.773438 70.835938 99.625 C 69.507812 98.429688 68.4375 97.578125 68.4375 97.75 Z M 68.4375 97.75 "/>
<path style=" stroke:none;fill-rule:nonzero;fill:rgb(0%,0%,0%);fill-opacity:1;" d="M 23.253906 134.5625 C 19.359375 136.308594 16.617188 141.378906 17.257812 145.597656 C 18.074219 150.921875 22.570312 154.757812 27.964844 154.757812 C 35.246094 154.800781 40.386719 148.109375 38.5 141.164062 C 37.816406 138.695312 35.417969 135.710938 33.191406 134.648438 C 30.75 133.453125 25.738281 133.410156 23.253906 134.5625 Z M 31.519531 139.25 C 36.359375 142.65625 33.917969 150.15625 27.921875 150.027344 C 24.667969 149.984375 22.398438 147.554688 22.398438 144.105469 C 22.398438 139.207031 27.582031 136.4375 31.519531 139.25 Z M 31.519531 139.25 "/>
<path style=" stroke:none;fill-rule:nonzero;fill:rgb(0%,0%,0%);fill-opacity:1;" d="M 45.910156 134.304688 C 45.824219 134.605469 45.78125 139.25 45.824219 144.617188 L 45.953125 154.417969 L 50.234375 154.417969 L 50.449219 148.707031 L 50.664062 142.953125 L 51.90625 144.871094 C 52.589844 145.894531 54.476562 148.535156 56.101562 150.710938 L 59.058594 154.671875 L 61.070312 154.542969 L 63.082031 154.417969 L 63.082031 133.964844 L 58.800781 133.964844 L 58.585938 139.71875 L 58.371094 145.425781 L 56.1875 142.488281 C 54.988281 140.824219 53.234375 138.351562 52.332031 136.949219 C 51.433594 135.542969 50.492188 134.261719 50.234375 134.09375 C 49.507812 133.539062 46.167969 133.710938 45.910156 134.304688 Z M 45.910156 134.304688 "/>
<path style=" stroke:none;fill-rule:nonzero;fill:rgb(0%,0%,0%);fill-opacity:1;" d="M 71.175781 134.304688 C 71.050781 134.648438 71.007812 138.269531 71.09375 142.316406 C 71.21875 150.835938 71.476562 151.476562 75.203125 153.648438 C 76.917969 154.671875 77.6875 154.84375 80.214844 154.800781 C 85.054688 154.757812 88.265625 152.542969 89.378906 148.453125 C 89.636719 147.515625 89.851562 144.148438 89.851562 140.953125 C 89.851562 134.222656 89.636719 133.625 87.066406 133.835938 L 85.351562 133.964844 L 85.140625 140.570312 C 84.96875 146.023438 84.796875 147.429688 84.152344 148.367188 C 82.613281 150.710938 79.484375 151.050781 77.34375 149.132812 L 75.929688 147.898438 L 75.71875 140.910156 L 75.503906 133.964844 L 73.449219 133.835938 C 71.992188 133.753906 71.347656 133.878906 71.175781 134.304688 Z M 71.175781 134.304688 "/>
<path style=" stroke:none;fill-rule:nonzero;fill:rgb(0%,0%,0%);fill-opacity:1;" d="M 98.117188 134.222656 C 97.300781 135.03125 97.34375 152.882812 98.117188 153.949219 C 98.628906 154.628906 99.273438 154.714844 104.238281 154.585938 C 110.621094 154.375 112.675781 153.691406 113.917969 151.179688 C 115.289062 148.578125 114.605469 145.042969 112.503906 143.976562 C 111.648438 143.507812 111.691406 143.464844 112.761719 142.230469 C 114.691406 139.929688 113.917969 136.480469 111.09375 134.773438 C 110.019531 134.136719 108.738281 133.921875 104.195312 133.835938 C 100.085938 133.710938 98.5 133.835938 98.117188 134.222656 Z M 108.609375 138.949219 C 110.191406 140.527344 108.308594 142.273438 104.96875 142.273438 L 102.699219 142.273438 L 102.699219 138.4375 L 105.394531 138.4375 C 106.9375 138.4375 108.308594 138.652344 108.609375 138.949219 Z M 109.292969 146.917969 C 111.007812 148.792969 109.164062 150.367188 105.183594 150.367188 L 102.699219 150.367188 L 102.699219 146.109375 L 105.609375 146.109375 C 107.964844 146.109375 108.695312 146.277344 109.292969 146.917969 Z M 109.292969 146.917969 "/>
<path style=" stroke:none;fill-rule:nonzero;fill:rgb(0%,0%,0%);fill-opacity:1;" d="M 127.28125 135.328125 C 126.894531 136.222656 125.867188 138.652344 124.96875 140.78125 C 121.328125 149.21875 120.128906 152.328125 120.085938 153.351562 C 120.042969 154.332031 120.214844 154.417969 122.054688 154.542969 L 124.070312 154.671875 L 125.183594 152.542969 L 126.253906 150.367188 L 129.421875 150.367188 C 131.175781 150.367188 132.890625 150.242188 133.234375 150.113281 C 133.703125 149.941406 134.175781 150.582031 134.945312 152.242188 C 136.015625 154.542969 136.101562 154.628906 137.773438 154.628906 C 139.785156 154.628906 140.8125 154.289062 140.8125 153.648438 C 140.8125 153.011719 133.148438 134.988281 132.546875 134.261719 C 132.335938 134.007812 131.21875 133.753906 130.019531 133.753906 C 128.007812 133.753906 127.878906 133.792969 127.28125 135.328125 Z M 132.164062 145.46875 C 132.035156 145.640625 131.050781 145.683594 129.980469 145.597656 L 128.09375 145.46875 L 130.234375 140.78125 L 131.304688 142.996094 C 131.90625 144.234375 132.292969 145.339844 132.164062 145.46875 Z M 132.164062 145.46875 "/>
<path style=" stroke:none;fill-rule:nonzero;fill:rgb(0%,0%,0%);fill-opacity:1;" d="M 56.101562 162.980469 C 55.375 163.492188 55.160156 164.003906 55.246094 164.984375 C 55.332031 166.046875 55.632812 166.347656 56.832031 166.773438 C 57.644531 167.027344 58.414062 167.496094 58.5 167.753906 C 58.714844 168.476562 57.515625 168.816406 56.53125 168.304688 C 55.886719 167.964844 55.546875 168.007812 55.160156 168.476562 C 54.390625 169.414062 56.574219 170.179688 58.585938 169.667969 C 59.957031 169.371094 60.085938 169.199219 60.085938 167.835938 C 60.085938 166.515625 59.871094 166.261719 58.5 165.578125 C 56.53125 164.640625 56.359375 163.832031 58.160156 164.085938 C 60 164.34375 60.8125 163.320312 59.230469 162.722656 C 57.6875 162.128906 57.214844 162.171875 56.101562 162.980469 Z M 56.101562 162.980469 "/>
<path style=" stroke:none;fill-rule:nonzero;fill:rgb(0%,0%,0%);fill-opacity:1;" d="M 76.660156 162.980469 C 76.058594 163.40625 75.71875 164.046875 75.71875 164.898438 C 75.71875 165.960938 75.972656 166.261719 77.429688 166.816406 C 78.371094 167.199219 79.144531 167.667969 79.144531 167.835938 C 79.144531 168.605469 78.160156 168.773438 77.128906 168.222656 C 76.273438 167.753906 76.015625 167.753906 75.71875 168.261719 C 75.203125 169.117188 75.546875 169.457031 77.214844 169.796875 C 79.101562 170.136719 80.855469 169.117188 80.855469 167.667969 C 80.855469 166.472656 80.214844 165.878906 78.585938 165.492188 C 76.960938 165.066406 77.003906 163.832031 78.671875 164.128906 C 80.171875 164.429688 80.855469 163.40625 79.570312 162.722656 C 78.457031 162.128906 77.773438 162.171875 76.660156 162.980469 Z M 76.660156 162.980469 "/>
<path style=" stroke:none;fill-rule:nonzero;fill:rgb(0%,0%,0%);fill-opacity:1;" d="M 64.667969 165.492188 C 64.882812 168.648438 65.394531 169.457031 67.621094 169.796875 C 70.0625 170.222656 71.136719 168.988281 71.347656 165.535156 C 71.519531 162.9375 71.476562 162.722656 70.664062 162.722656 C 69.894531 162.722656 69.765625 163.023438 69.636719 165.109375 C 69.507812 167.667969 68.78125 168.648438 67.410156 168.136719 C 66.894531 167.921875 66.722656 167.28125 66.722656 165.28125 C 66.722656 162.808594 66.679688 162.722656 65.609375 162.722656 C 64.496094 162.722656 64.496094 162.722656 64.667969 165.492188 Z M 64.667969 165.492188 "/>
<path style=" stroke:none;fill-rule:nonzero;fill:rgb(0%,0%,0%);fill-opacity:1;" d="M 85.566406 166.347656 C 85.566406 169.667969 85.652344 169.96875 86.425781 169.96875 C 87.109375 169.96875 87.28125 169.667969 87.28125 168.476562 C 87.28125 167.070312 87.367188 166.984375 88.78125 166.984375 C 90.191406 166.984375 90.277344 167.070312 90.277344 168.476562 C 90.277344 169.667969 90.449219 169.96875 91.136719 169.96875 C 91.90625 169.96875 91.992188 169.667969 91.992188 166.347656 C 91.992188 163.023438 91.90625 162.722656 91.136719 162.722656 C 90.449219 162.722656 90.277344 163.023438 90.277344 164.003906 C 90.277344 165.195312 90.148438 165.28125 88.78125 165.28125 C 87.410156 165.28125 87.28125 165.195312 87.28125 164.003906 C 87.28125 163.023438 87.109375 162.722656 86.425781 162.722656 C 85.652344 162.722656 85.566406 163.023438 85.566406 166.347656 Z M 85.566406 166.347656 "/>
<path style=" stroke:none;fill-rule:nonzero;fill:rgb(0%,0%,0%);fill-opacity:1;" d="M 97.128906 166.261719 C 97.128906 169.5 97.214844 169.796875 97.988281 169.839844 C 98.800781 169.925781 98.84375 169.667969 98.84375 166.304688 C 98.84375 163.023438 98.757812 162.722656 97.988281 162.722656 C 97.214844 162.722656 97.128906 163.023438 97.128906 166.261719 Z M 97.128906 166.261719 "/>
<path style=" stroke:none;fill-rule:nonzero;fill:rgb(0%,0%,0%);fill-opacity:1;" d="M 23.769531 164.683594 C 23.210938 165.238281 23.46875 166.984375 24.113281 167.242188 C 24.453125 167.410156 25.097656 167.324219 25.523438 167.15625 C 25.910156 166.941406 30.105469 166.601562 34.816406 166.304688 L 43.382812 165.835938 L 38.03125 165.75 C 32.375 165.621094 26.382812 165.152344 24.96875 164.683594 C 24.496094 164.515625 23.941406 164.515625 23.769531 164.683594 Z M 23.769531 164.683594 "/>
<path style=" stroke:none;fill-rule:nonzero;fill:rgb(0%,0%,0%);fill-opacity:1;" d="M 130.878906 164.855469 C 130.492188 165.109375 126.464844 165.453125 121.882812 165.621094 L 113.617188 165.960938 L 121.757812 166.261719 C 126.253906 166.429688 130.234375 166.773438 130.621094 166.984375 C 132.335938 167.921875 133.917969 166.730469 133.0625 165.152344 C 132.589844 164.34375 131.949219 164.257812 130.878906 164.855469 Z M 130.878906 164.855469 "/>
</g>
</svg>
