<svg width="467" height="532" viewBox="0 0 467 532" fill="none" xmlns="http://www.w3.org/2000/svg">
<path d="M168.133 2.29846C152.667 8.56512 143.6 29.6318 150.933 42.1651C159.2 55.8985 184 55.4985 200.133 41.2318C202.8 38.9651 205.067 37.4985 205.067 38.0318C205.067 39.3651 199.333 45.4985 188.133 56.2985C180 64.0318 175.6 71.2318 173.733 79.7651L172.8 84.2985L176.933 81.3651C179.2 79.7651 184.8 76.6985 189.467 74.5651C197.733 70.8318 198 70.5651 201.467 61.6318C212.133 33.8985 212.133 15.8985 201.467 6.29846C194.4 -0.101542 178.8 -1.96821 168.133 2.29846ZM183.067 7.89846C183.6 8.69846 184.4 8.96512 184.933 8.69846C185.467 8.29846 187.867 9.23179 190.267 10.6985C194.933 13.4985 200 23.4985 199.2 28.2985C198.8 29.8985 198.533 32.5651 198.533 34.1651C198.4 37.3651 193.067 43.6318 187.467 47.0985C184.267 49.2318 182.933 49.2318 176.133 47.7651C165.333 45.4985 163.867 44.5651 160.933 37.6318C158.133 30.9651 157.733 25.7651 159.867 20.2985C161.733 15.3651 167.6 9.23179 170.533 9.23179C171.867 9.23179 173.333 8.56512 173.733 7.89846C174.8 6.16512 182 6.16512 183.067 7.89846Z" fill="black"/>
<path d="M173.2 24.9651C172.267 26.8318 172.4 28.2984 173.867 30.4318C177.867 36.0318 187.867 31.3651 184.267 25.4984C182.133 22.1651 174.933 21.7651 173.2 24.9651Z" fill="black"/>
<path d="M229.733 12.6985C227.6 13.0985 222.533 13.8985 218.667 14.6985C212 16.0318 211.733 16.1652 212.667 19.6318C214.933 27.6318 213.6 41.6318 209.333 54.6985C206.933 61.7652 205.067 68.1652 205.067 68.9652C205.067 69.7652 208 71.2318 211.733 72.2985C218.133 74.1652 231.067 80.9652 230.133 81.8985C229.867 82.1652 227.2 81.6318 224.4 80.5652C221.467 79.4985 215.067 78.6985 210.267 78.5652C203.067 78.5652 200 79.3652 192.933 82.8318C172.667 92.8318 144.8 130.298 137.733 157.098L136 163.898L140 161.098C142.133 159.498 144.533 156.698 145.333 154.698C147.733 148.298 153.067 137.898 155.733 134.565C158.267 131.232 158.267 131.365 155.733 138.298C154.267 142.165 153.067 146.832 153.067 148.565V151.898L158.133 149.365C170.8 142.965 192.533 140.032 209.733 142.565C230.533 145.498 235.467 145.632 241.6 143.365C246.667 141.498 247.333 140.698 246.667 137.898C246.4 136.032 246.667 133.765 247.467 132.832C248.4 131.765 248.267 130.432 246.933 128.698C244.4 125.098 244.533 122.032 247.6 119.365C251.6 115.765 256.133 117.098 257.867 122.298C259.067 126.165 259.467 126.432 260.933 124.698C263.467 121.632 264.667 122.032 269.733 127.098C277.067 134.032 275.467 142.565 267.067 142.565C264.533 142.565 262.4 143.232 262.4 143.898C262.4 144.698 260.933 145.898 259.2 146.698C256.667 147.898 255.333 147.765 253.067 146.165C250.533 144.432 249.733 144.432 246.667 146.032C244.667 147.098 242 147.898 240.8 147.898C236.4 147.898 237.333 150.165 243.6 154.965C249.2 159.365 250.933 159.898 257.6 159.898C261.733 159.898 267.067 160.698 269.467 161.632C273.733 163.498 280 171.232 281.6 176.832C282.133 178.432 283.867 179.898 285.467 180.165C287.6 180.432 288.533 181.898 289.333 185.632C290.667 191.765 292.667 195.898 294.533 195.898C295.333 195.898 294.933 194.565 293.867 192.965C291.067 188.965 291.2 178.698 294 174.565C295.333 172.698 296.133 170.298 296 169.098C295.6 166.832 299.2 162.965 300.533 164.298C300.933 164.565 302.667 163.498 304.4 161.765C308.4 157.765 311.067 157.765 315.067 161.765C316.933 163.632 319.733 165.232 321.333 165.498C323.6 165.765 324.533 166.965 324.8 169.498C325.067 171.632 326 173.232 326.933 173.232C327.867 173.232 330 174.698 331.6 176.432C334.4 179.365 334.533 180.565 333.733 187.765C333.067 194.032 332.267 196.032 330.267 196.565C328.933 197.098 327.333 197.098 326.8 196.832C326.133 196.432 325.733 198.832 325.6 202.032C325.467 209.898 321.2 214.565 314.267 214.565C311.467 214.565 308.8 214.032 308.4 213.232C307.867 212.432 306 213.098 303.867 214.698C300.4 217.232 299.6 217.365 296.267 215.632C294 214.565 292.267 212.565 292 210.832C291.6 208.432 291.2 208.032 289.733 209.232C287.733 210.965 282.4 209.898 282.4 207.765C282.4 207.098 280.667 204.965 278.4 202.965C273.733 198.832 273.067 193.232 276.933 189.365C279.867 186.432 279.867 186.432 270.4 184.565C263.733 183.232 258 179.365 254.133 173.632C247.867 164.298 238.4 156.032 228.267 150.965C219.6 146.832 216.667 146.032 206.8 145.498C185.2 144.298 168.133 150.965 152.267 166.565C136.4 182.165 130.133 199.498 133.067 219.765C133.733 224.432 134.4 228.432 134.667 228.565C134.933 228.832 136.8 227.632 138.8 225.765C142.4 222.698 142.4 222.432 140.4 218.698C137.467 212.832 137.867 206.032 141.467 202.032C144.667 198.298 153.867 193.898 154.8 195.632C155.2 196.165 155.867 199.898 156.4 203.898C157.067 209.765 156.667 212.298 154.667 216.165L152 221.232H158.4C161.867 221.232 166.533 220.298 168.667 219.232C172 217.632 173.467 217.498 176.533 218.698C178.667 219.632 181.333 220.165 182.667 220.032C183.867 219.898 185.2 220.432 185.733 221.232C186.133 221.898 187.867 222.565 189.333 222.565C191.067 222.565 195.867 226.432 201.733 232.432C216.133 247.232 227.467 251.898 248.8 251.898C264.4 251.898 278.8 247.765 302.667 236.565C340.667 218.565 365.2 211.632 390.4 211.632H404.667L406.533 200.165C414.667 147.765 395.467 94.0318 354.8 55.7652C332.267 34.6985 306.933 21.4985 277.067 15.2318C267.2 13.0985 237.467 11.4985 229.733 12.6985ZM276 27.4985C284.4 30.6985 284.667 31.3652 280.267 36.0318C272.267 44.4318 264.8 45.8985 254.4 40.9652L248.4 38.1652L257.6 36.4318C262.667 35.4985 267.467 34.2985 268.267 33.8985C270.133 32.9652 258.8 34.2985 254.4 35.4985C251.2 36.2985 251.2 36.2985 253.2 33.2318C255.6 29.4985 263.2 25.2318 267.333 25.2318C268.933 25.2318 272.933 26.1652 276 27.4985ZM243.467 39.8985C247.467 41.8985 249.733 44.1652 251.733 48.1652C258.267 61.6318 247.467 77.6318 233.467 75.3652C220.133 73.2318 220.533 73.4985 216.667 65.4985C213.867 59.8985 213.733 58.5652 214.933 52.1652C216 47.0985 217.467 44.0318 220.133 41.7652C222.267 40.0318 224.4 38.8318 225.067 39.2318C225.6 39.6318 226.933 38.9652 227.867 37.7652C229.867 35.2318 235.333 36.0318 243.467 39.8985ZM301.067 48.6985C301.067 49.7652 300.4 50.2985 299.733 49.8985C298.933 49.3652 298.667 48.4318 299.067 47.7652C300.267 45.8985 301.067 46.2985 301.067 48.6985ZM293.733 65.2318C293.067 66.2985 292.267 66.2985 291.467 65.4985C290.667 64.6985 290.533 63.3652 291.067 62.5652C291.733 61.4985 292.533 61.4985 293.333 62.2985C294.133 63.0985 294.267 64.4318 293.733 65.2318ZM317.067 66.8318C317.067 68.9652 316.667 69.3652 315.6 68.2985C314.8 67.4985 314.533 66.1652 314.933 65.3652C316.4 63.0985 317.067 63.6318 317.067 66.8318ZM334.4 80.6985C334.4 81.7652 333.733 82.2985 333.067 81.8985C332.267 81.3652 332 80.4318 332.4 79.7652C333.6 77.8985 334.4 78.2985 334.4 80.6985ZM304.133 86.2985C303.2 86.5652 302.4 87.6318 302.4 88.6985C302.4 90.1652 301.867 90.0318 300.133 88.1652C298 86.1652 298 85.6318 299.733 83.8985C301.467 82.1652 302 82.1652 303.733 83.8985C305.333 85.3652 305.467 86.0318 304.133 86.2985ZM218.933 91.4985C219.467 92.0318 220.667 92.5652 221.467 92.5652C222.4 92.6985 225.6 93.7652 228.667 95.0985C233.333 97.0985 234.933 98.8318 237.733 104.832C240.4 110.298 241.067 113.498 240.533 117.632C239.467 126.698 237.2 131.765 233.6 132.698C231.867 133.098 230.4 134.298 230.4 135.232C230.4 137.765 218.4 141.365 215.467 139.765C214.133 139.098 212.267 138.565 211.333 138.698C206.8 139.232 204.4 138.032 198.933 132.165C192 124.832 191.067 122.165 192.267 112.165C193.333 103.232 198.133 96.1652 203.867 94.9652C206 94.5652 208.4 93.3652 209.2 92.4318C210.8 90.4318 217.333 89.8985 218.933 91.4985ZM280.267 100.032C281.333 101.632 282.8 102.432 283.6 102.032C284.4 101.498 286.267 101.765 287.867 102.565C290 103.765 290.533 104.965 289.867 107.898C289.467 110.298 289.867 112.298 291.067 113.232C293.6 115.365 293.6 117.765 291.067 122.565C289.067 126.432 288.8 126.432 280.667 126.032C276.133 125.765 272 125.498 271.467 125.365C271.067 125.232 270.267 123.632 269.733 121.498C269.333 119.498 267.733 117.232 266.133 116.565C259.2 113.365 259.733 104.432 267.067 101.898C269.333 101.232 271.6 99.8985 272.133 98.9652C273.733 96.2985 278 96.9652 280.267 100.032ZM357.2 101.365C368.133 109.098 366.933 124.165 354.8 129.898C351.467 131.498 348.8 131.898 345.333 131.232L340.4 130.165L345.067 128.965C354.533 126.432 359.2 117.632 355.733 109.098C353.6 104.032 349.6 101.232 344.4 101.232C341.333 101.232 340.8 100.832 342.4 99.8985C345.733 97.7652 353.067 98.4318 357.2 101.365ZM188.667 104.432C190 105.632 186.267 114.032 182.4 118.832C178.267 123.898 171.333 127.098 166.133 126.298C163.333 125.898 163.6 125.365 169.733 118.832C175.067 113.098 175.6 112.032 172.667 113.365C170.8 114.165 167.467 117.365 165.467 120.432L161.733 125.898L161.333 120.965C160.8 114.698 164 108.565 169.467 105.098C172.8 102.965 175.2 102.565 180.933 103.098C184.8 103.498 188.267 104.032 188.667 104.432ZM309.467 132.698C308.933 134.032 308.267 134.032 306.4 132.965C304.133 131.498 304.133 131.232 306.133 129.765C308.667 127.898 310.667 129.765 309.467 132.698ZM379.733 152.165C381.333 153.498 384.267 154.565 386.267 154.698C389.333 154.698 389.067 154.965 384.4 156.698C377.6 159.232 377.2 159.632 375.867 166.698C374.8 172.432 374.8 172.565 373.867 168.565C371.867 160.165 370.667 158.698 364.133 156.698C359.2 155.232 358.533 154.698 361.333 154.698C368.4 154.432 371.467 152.298 372.533 146.965C373.867 139.365 374.933 138.698 375.867 144.432C376.4 147.498 378 150.698 379.733 152.165ZM213.333 152.032C214.533 152.032 216.267 152.965 217.2 154.032C218 155.098 219.867 155.898 221.2 155.898C224.533 155.898 232.4 163.098 234 167.498C238 178.698 238.533 181.232 237.2 183.765C236.4 185.232 235.733 187.632 235.733 189.098C235.733 193.498 231.6 200.832 228.267 202.432C226.533 203.232 225.067 204.432 225.067 205.232C225.067 209.632 206.667 213.232 201.467 209.765C199.733 208.698 197.733 208.165 197.067 208.565C194.933 209.898 187.733 205.365 186 201.498C185.067 199.632 182.933 196.565 181.2 194.832C179.333 192.965 178.4 190.832 178.8 189.098C179.2 187.765 178.933 186.165 178.267 185.765C176.667 184.832 176.667 177.898 178.267 174.832C179.067 173.632 180 170.832 180.4 168.698C181.467 163.898 189.2 155.898 192.667 155.898C194.133 155.898 196.4 154.698 197.867 153.098C199.867 150.832 201.333 150.432 205.733 151.098C208.667 151.498 212.133 151.898 213.333 152.032ZM260.667 190.432C262.4 194.565 262.4 195.765 259.733 204.165C258 209.098 256.267 213.232 255.733 213.232C255.333 213.232 252.4 210.965 249.333 208.165C244.267 203.365 243.733 202.432 243.733 196.432C243.733 192.032 244.667 188.432 246.667 185.232L249.6 180.565L250.667 187.765C251.333 191.765 252.133 195.365 252.4 195.765C253.733 196.965 253.067 185.365 251.6 181.632L250.267 177.898L254.533 181.898C256.8 184.032 259.6 187.898 260.667 190.432ZM354.8 190.965C354.4 191.632 353.467 191.498 352.8 190.832C352 190.032 351.867 188.698 352.4 187.898C353.2 186.698 353.6 186.698 354.533 188.032C355.067 188.965 355.2 190.298 354.8 190.965ZM384.267 196.165C385.333 196.832 385.2 197.232 384.133 197.232C383.2 197.232 382.4 198.298 382.4 199.498C382.4 201.498 382.133 201.365 380 199.232C377.867 196.965 377.867 196.432 379.733 194.565C380.933 193.365 382 192.965 382.267 193.898C382.533 194.565 383.467 195.632 384.267 196.165ZM396.267 193.098C396.667 193.765 396.267 194.965 395.2 195.765C393.867 196.965 393.2 196.832 392.667 195.365C391.467 192.432 394.667 190.432 396.267 193.098ZM262.133 230.565C262.933 230.565 262.267 231.898 260.667 233.498C258 236.298 257.6 236.432 256.8 234.165C256.267 232.965 254.8 231.898 253.467 231.765C251.6 231.765 251.733 231.498 254.133 230.565C255.733 229.898 257.067 228.565 257.067 227.632C257.2 226.565 257.733 226.698 258.933 228.165C259.867 229.498 261.333 230.565 262.133 230.565Z" fill="black"/>
<path d="M230.667 52.6985C227.067 55.0985 226.933 57.4985 230.133 60.2985C233.067 62.9652 238 61.8985 239.067 58.4318C240.667 53.3652 235.067 49.4985 230.667 52.6985Z" fill="black"/>
<path d="M211.2 111.365C208.667 113.899 208.533 117.232 210.8 120.165C213.867 124.299 221.6 123.232 223.067 118.432C225.2 111.899 216 106.432 211.2 111.365Z" fill="black"/>
<path d="M201.867 175.099C197.6 179.232 197.467 183.899 201.467 187.632C205.733 191.632 210.933 191.365 214.4 186.965C218.933 181.232 216.267 174.299 208.8 172.565C206 171.899 204.4 172.432 201.867 175.099Z" fill="black"/>
<path d="M132.4 56.0318C118 70.0318 109.467 81.7651 100.8 99.2318C92.8 115.098 88.4 127.765 85.0667 143.765C81.6 160.565 81.6 166.298 84.8 166.032C86 166.032 87.4667 165.365 87.8667 164.832C88.2667 164.298 90 163.632 91.4667 163.498C93.7334 163.365 94.4 162.432 94.4 159.898C94.4 155.765 100 149.898 102.8 150.965C103.867 151.365 105.6 154.298 106.667 157.365L108.533 163.098L113.6 153.898C116.4 148.832 119.867 143.232 121.2 141.498L123.6 138.298L116.8 134.698C107.333 129.898 104.667 124.832 105.6 112.832C106 107.898 106.667 103.365 107.067 102.565C108.533 100.165 122.667 111.365 125.867 117.498C126.933 119.498 127.733 123.632 127.733 126.832V132.565L130.8 127.898C132.4 125.365 139.467 117.365 146.533 109.898C160.267 95.6318 161.867 93.2318 167.2 78.2985C169.2 72.9651 172.133 66.4318 173.867 63.7651L176.933 58.9651L168.4 58.2985C158.533 57.4985 152.4 54.2985 148.133 48.0318L145.067 43.4985L132.4 56.0318ZM142.933 64.8318C143.467 65.4985 144.4 65.8985 144.8 66.0318C148.8 66.6985 154.667 70.0318 156.4 72.8318C157.733 74.6985 158.933 79.6318 159.333 83.7651C160 90.5651 159.733 91.7651 156.4 95.6318C154.4 98.0318 152 99.8985 151.067 99.8985C150.133 99.8985 148.667 100.832 147.733 101.898C145.867 104.032 135.467 103.765 134.667 101.498C134.4 100.698 133.467 100.298 132.533 100.698C130.8 101.365 122.533 93.7651 122.267 91.3651C122.267 90.5651 122 88.4318 121.6 86.6985C121.333 84.8318 122 80.5651 123.2 76.9651C124.933 71.4985 126.267 70.0318 131.467 67.3651C138 63.8985 141.333 63.2318 142.933 64.8318Z" fill="black"/>
<path d="M135.467 81.8985C133.6 86.1651 136.133 89.4985 140.8 88.9651C145.733 88.2985 147.6 84.6985 144.533 81.3651C141.067 77.6318 137.333 77.8985 135.467 81.8985Z" fill="black"/>
<path d="M442.4 51.2318C441.067 56.1651 440.933 58.4318 442.133 61.7651C444 66.9651 444.267 81.6318 442.533 80.9651C441.733 80.6985 439.867 78.5651 438.133 76.0318C435.333 72.0318 424.133 64.2985 422.933 65.6318C422.533 65.8985 424.267 69.0985 426.667 72.6985C430.267 77.8985 432.267 79.4985 437.467 81.0985L443.733 83.0985V96.1651C443.733 103.365 443.333 109.232 442.667 109.232C442.133 109.232 440.267 106.432 438.533 103.098C435.6 97.7651 424.533 88.0318 422.933 89.4985C422.667 89.8985 424 93.3651 426.133 97.3651C429.2 103.498 430.8 105.098 436.8 107.765C442.8 110.565 443.733 111.632 443.733 114.832C443.733 118.298 443.333 118.565 438.533 118.565H433.333L431.2 127.232C429.867 132.832 429.067 141.498 429.067 152.298V168.832L434 176.298C436.667 180.432 439.2 183.632 439.467 183.365C439.733 183.098 438.267 178.832 436.267 173.898C432.933 165.232 432.8 164.032 433.333 147.365C433.733 137.765 434.667 128.165 435.6 126.165C436.933 122.565 437.333 122.432 445.333 122.832L453.733 123.232L455.333 129.898C456.267 133.498 457.467 142.565 457.867 149.898C458.667 162.965 458.667 163.498 454.533 173.098C452.133 178.432 450.533 183.098 450.933 183.498C451.333 183.898 454 180.432 456.933 175.898C462.267 167.765 462.4 167.098 462.4 156.032C462.4 144.298 461.067 133.898 458.4 124.032C456.933 118.698 456.8 118.565 451.067 118.565H445.067V91.3651C445.067 76.5651 445.6 62.5651 446.4 60.4318C447.333 57.6318 447.2 54.8318 446 50.6985L444.133 44.8318L442.4 51.2318Z" fill="black"/>
<path d="M458.133 70.9652C454.933 73.3652 451.067 77.8985 449.333 80.8318L446.267 86.4318L450.533 85.2318C455.867 83.6318 460.533 79.3652 463.867 72.9652C468 64.8318 466.667 64.4318 458.133 70.9652Z" fill="black"/>
<path d="M37.6 82.5651C38 87.3651 38.6667 93.6318 39.2 96.5651L40 101.898L36.6667 97.2318C33.7333 93.0985 29.3333 89.2318 24 86.0318C22.9333 85.3651 23.3333 87.4985 25.0667 92.1651C26.8 96.6985 29.8667 101.232 33.6 104.565C38.6667 109.232 39.2 110.298 38.2667 113.498C37.3333 117.232 37.3333 117.232 44 117.232H50.6667L50.1333 113.098C49.6 109.365 50.1333 108.432 55.8667 104.432C59.3333 101.898 63.0667 97.8985 64.1334 95.4985C67.7334 88.0318 69.0667 83.8985 67.8667 83.8985C65.0667 83.8985 53.0667 96.4318 50.2667 102.165L47.0667 108.565L46.6667 104.165C46.4 101.765 46.8 96.6985 47.6 93.0985C50 82.0318 49.4667 79.6318 46 86.2985L42.9333 92.0318L41.2 84.9651C38.4 73.7651 36.8 72.6985 37.6 82.5651Z" fill="black"/>
<path d="M114.4 117.632C114.4 119.898 119.6 128.698 122.533 131.232L125.467 133.898L122.533 128.565C119.067 122.298 114.533 116.165 114.4 117.632Z" fill="black"/>
<path d="M18.5333 125.098C22.9333 130.165 25.3333 131.632 34.1333 134.432L38.4 135.765L38.2667 130.832C38.1333 128.165 37.8667 126.832 37.4667 128.165C37.0667 130.032 36.4 129.898 33.4667 127.098C30.5333 124.298 19.3333 119.898 15.3333 119.898C14.6667 119.898 16.1333 122.298 18.5333 125.098Z" fill="black"/>
<path d="M40.1333 120.832C42.1333 121.099 45.3333 121.099 47.4667 120.832C49.4667 120.565 47.7333 120.299 43.7333 120.299C39.7333 120.299 38 120.565 40.1333 120.832Z" fill="black"/>
<path d="M67.2 125.899C62.9333 127.632 57.3333 131.099 54.8 133.365L50.4 137.765V132.165V126.565H45.2H39.8667L40.2667 145.765C40.6667 162.032 40.4 165.232 38.6667 165.899C37.6 166.299 36.5333 166.432 36.4 166.299C31.2 157.499 27.3333 151.899 26.9333 152.299C26.6667 152.565 27.0667 154.965 27.8667 157.632C30.1333 166.165 32.8 181.232 31.8667 181.099C31.4667 181.099 28.1333 176.432 24.4 170.965C20 164.299 14.6667 158.299 8.8 153.765L0 146.699L4.13333 155.899C9.33333 167.632 13.8667 173.232 23.8667 180.032C31.0667 184.832 31.7333 185.765 31.7333 190.165V194.965L28.4 191.499C26.5333 189.632 21.3333 186.299 17.0667 184.032L9.06667 180.032L11.2 184.299C14.8 191.499 21.2 197.099 28.2667 199.365C32 200.565 35.8667 202.299 36.9333 203.099C38.4 204.165 38.2667 203.499 36.6667 200.299C34.2667 195.765 33.6 184.565 35.6 183.232C36.2667 182.832 37.2 183.899 37.4667 185.499C37.8667 187.232 38 183.899 38 178.165C37.7333 169.765 38.1333 167.899 39.7333 167.899C41.4667 167.899 41.7333 169.365 40.9333 177.499C39.3333 192.299 39.6 203.632 41.2 204.699C42.2667 205.232 41.6 206.299 39.6 207.365L36.4 209.099L40.4 209.365L44.4 209.499L40.4 210.565C37.4667 211.365 37.2 211.632 39.2 211.765C40.8 211.765 43.8667 212.299 46.1333 212.699L50.2667 213.499L50.6667 205.899L51.0667 198.165L57.4667 196.565C64.1333 194.832 68 191.899 74.6667 183.632L78.5333 178.565L73.3333 180.432C65.4667 183.232 60.2667 186.165 55.0667 190.699C50 195.099 49.0667 194.032 51.8667 186.965C52.6667 184.965 54.5333 178.965 55.8667 173.899C58.2667 164.565 58.2667 164.565 55.7333 167.899C54.2667 169.765 52.5333 172.965 51.8667 175.232C50.9333 178.032 50.6667 173.499 50.8 160.032L51.0667 140.832L56.9333 139.099C62.8 137.365 68.4 132.965 73.3333 126.165C74.6667 124.165 75.7333 122.565 75.4667 122.565C75.2 122.565 71.4667 124.032 67.2 125.899Z" fill="black"/>
<path d="M119.6 164.032C116.4 168.832 107.733 186.298 107.733 187.898C107.733 188.698 111.733 189.232 117.733 189.232C123.2 189.232 127.733 188.698 127.733 188.165C127.733 187.498 126.8 183.765 125.6 179.765C124.4 175.765 123.067 169.898 122.533 166.698L121.733 160.698L119.6 164.032Z" fill="black"/>
<path d="M259.6 169.098C261.467 170.432 264.667 172.698 266.933 174.032L271.067 176.298L268.4 173.365C265.733 170.298 259.6 166.565 257.467 166.565C256.933 166.565 257.867 167.765 259.6 169.098Z" fill="black"/>
<path d="M84 173.232C80.4 179.232 83.0667 205.632 89.2 224.565C92.6667 234.832 100.933 254.298 99.0667 247.498C95.4667 234.565 94.1333 222.432 94.8 208.165C95.0667 199.632 95.8667 191.232 96.4 189.498C97.2 186.965 96.9333 186.565 93.8667 186.565C86.2667 186.565 82.1333 176.698 88 172.698C90.8 170.698 90.8 170.565 88.4 170.565C86.9333 170.565 84.9333 171.765 84 173.232Z" fill="black"/>
<path d="M304.133 179.498C299.733 180.032 295.6 184.165 295.867 187.898C295.867 189.632 296 189.632 296.667 187.898C298 184.165 301.467 181.232 304.533 181.232C306.267 181.232 308 180.565 308.4 179.898C308.8 179.098 309.067 178.698 308.8 178.832C308.533 178.832 306.4 179.232 304.133 179.498Z" fill="black"/>
<path d="M309.867 181.099C309.467 181.765 310 182.965 311.067 183.899C313.733 186.032 313.6 192.432 310.933 194.699C309.733 195.632 306.4 196.832 303.333 197.365L297.733 198.165L302.533 198.432C311.6 198.699 318.4 188.832 312.4 183.899C311.333 182.965 310.8 181.765 311.2 181.099C311.6 180.432 311.6 179.899 311.2 179.899C310.8 179.899 310.267 180.432 309.867 181.099Z" fill="black"/>
<path d="M315.733 184.565C317.467 186.432 319.2 187.898 319.467 187.898C319.867 187.898 318.8 186.432 317.067 184.565C315.333 182.698 313.6 181.232 313.333 181.232C312.933 181.232 314 182.698 315.733 184.565Z" fill="black"/>
<path d="M105.2 200.698C103.333 213.765 103.333 224.432 105.6 239.898C108 257.232 114 271.232 123.733 282.565C126.133 285.365 126.533 285.498 125.733 283.232C121.733 271.098 121.6 254.165 125.467 244.965C127.2 240.832 127.2 239.365 125.467 233.098C124.267 228.565 123.467 219.498 123.333 208.565C123.2 195.765 122.933 192.698 122.133 196.832C119.067 213.365 118.533 214.298 118.933 202.565L119.333 191.232L117.6 197.898C116 204.432 116 204.432 115.6 199.898C115.467 197.365 115.333 194.432 115.333 193.365C115.467 192.432 114.933 192.165 114.4 192.698C113.733 193.365 112.933 197.232 112.667 201.232L112.267 208.565L112 199.898C111.733 192.298 111.333 191.098 109.2 190.965C107.067 190.832 106.533 192.298 105.2 200.698Z" fill="black"/>
<path d="M446.667 203.899C451.733 204.299 456.133 205.099 456.533 205.499C456.933 206.032 453.733 206.032 449.467 205.632C445.2 205.232 439.6 205.632 437.067 206.432C433.2 207.632 434.667 207.765 446 207.499C460.133 207.232 462 208.165 452.667 210.699C446.267 212.565 442.133 212.432 436.133 210.432C430.933 208.832 430.533 206.965 434.8 205.232C437.733 204.032 437.733 204.032 434.933 204.032C430.133 203.899 428.533 207.365 428 220.032C427.467 230.832 427.733 232.565 431.067 239.232L434.533 246.565H444.267C455.2 246.565 457.333 245.232 460.533 236.299C462.267 231.099 463.067 213.632 461.6 208.299C460.533 204.565 454 202.565 444.4 202.699C438.133 202.965 438.267 202.965 446.667 203.899Z" fill="black"/>
<path d="M7.59998 212.698C10.1333 217.232 16.1333 224.565 21.8666 230.032C27.3333 235.232 31.7333 240.298 31.7333 241.232C31.7333 242.432 30.8 242.165 28.8 240.298C23.6 235.632 7.99998 228.965 9.86665 232.298C14.6666 240.698 21.8666 246.565 27.6 246.565C31.0666 246.565 36.8 249.232 37.4666 251.098C38.1333 253.098 37.4666 249.765 35.8666 243.232C35.0666 240.298 34 234.832 33.4666 231.232C32.5333 224.565 32.5333 224.565 31.7333 229.232C30.8 233.898 30.8 233.898 29.3333 230.565C24.9333 220.698 16.9333 212.165 7.19998 206.965L3.33331 204.965L7.59998 212.698Z" fill="black"/>
<path d="M145.867 213.365C144.8 218.965 145.867 220.032 147.067 214.565C147.6 212.299 147.733 210.032 147.333 209.765C147.067 209.365 146.4 211.099 145.867 213.365Z" fill="black"/>
<path d="M42.1334 215.498C43.7334 215.765 46.1334 215.765 47.4667 215.498C48.6667 215.098 47.3334 214.832 44.4 214.965C41.4667 214.965 40.4 215.232 42.1334 215.498Z" fill="black"/>
<path d="M37.0667 218.832C37.0667 219.499 37.7333 219.899 38.4 219.899C39.2 219.899 39.7333 228.165 39.7333 242.032C39.7333 256.299 39.3333 263.765 38.4 263.232C37.7333 262.832 37.0667 263.099 37.0667 263.765C37.0667 264.565 38 265.232 39.2 265.232C41.0667 265.232 41.3333 266.299 40.5333 271.365C40.1333 274.832 39.7333 284.165 39.7333 292.165C39.7333 301.499 39.2 306.432 38.4 305.899C37.7333 305.499 37.0667 305.765 37.0667 306.432C37.0667 307.232 37.8667 307.899 38.8 307.899C40 307.899 40.2667 311.365 40 321.765C39.6 334.699 39.7333 335.765 42.2667 337.232C44.2667 338.299 45.8667 338.299 47.7333 337.232C50.2667 335.899 50.4 334.432 50.4 316.032C50.4 301.765 50.9333 295.899 52.1333 294.832C52.9333 294.165 56.4 293.099 59.7333 292.565C67.3333 291.365 71.3333 289.232 76.2667 284.032L80.2667 279.899L73.6 280.699C66.8 281.632 57.0667 286.032 57.0667 288.432C57.0667 289.099 56.8 289.365 56.4 288.965C54.6667 287.365 57.8667 283.365 64.9333 278.699C74.4 272.165 75.7333 270.565 82.1333 258.965L87.4667 249.499L81.2 253.232C73.3333 258.165 64.9333 266.832 60.5333 274.565L57.0667 280.565L56.9333 275.232C56.9333 270.699 56.6667 270.299 55.7333 272.832C55.0667 274.565 54.1333 278.965 53.6 282.832C51.8667 296.699 50.4 293.899 50.8 277.232L51.0667 260.565L59.0667 256.165C63.8667 253.499 68.8 249.365 71.4667 245.765L75.8667 239.765L68 243.765C63.6 246.032 57.8667 250.299 55.0667 253.499L50.2667 259.232L50.4 250.565C50.5333 245.765 50.5333 236.299 50.5333 229.499L50.4 217.099L43.7333 217.499C40.1333 217.765 37.0667 218.299 37.0667 218.832Z" fill="black"/>
<path d="M150.667 225.232C143.733 226.832 136.8 233.232 132.4 241.898C128.8 249.232 128.4 251.099 128.4 263.232C128.4 278.965 132.133 291.498 139.333 299.898C143.867 305.232 158.8 316.565 166 320.432L170.133 322.432L166.133 315.098C163.333 309.898 162 305.365 161.6 299.498L161.067 291.232L163.067 298.432C166.933 311.898 176.533 324.965 186.133 329.898L190.667 332.032L185.333 324.965C182.4 321.098 179.333 316.432 178.4 314.565C176.4 310.698 177.467 311.632 184.267 320.032C186.933 323.498 191.6 327.898 194.533 329.898C200.133 333.898 220.267 339.898 227.067 339.765C230.667 339.765 230.8 339.632 228.533 338.165C221.733 333.898 217.067 328.432 212.533 319.498C207.867 310.298 207.6 309.098 207.6 297.098C207.6 290.165 207.867 277.098 208.4 267.898C209.067 254.698 208.8 250.165 207.2 245.898L205.2 240.565L205.067 245.232C204.933 247.765 204.667 250.432 204.4 251.232C204.267 251.898 204 253.632 204 254.832C203.6 258.698 194.4 267.898 190.933 267.898C189.333 267.898 187.467 268.565 187.067 269.365C186.533 270.165 184.267 270.565 181.867 270.432C179.6 270.165 176.933 270.432 176 271.098C175.067 271.632 172.4 271.499 170 270.699C167.733 269.899 164.267 268.965 162.4 268.699C158.8 267.899 156.8 266.298 150.8 258.698C148 255.232 147.2 252.565 146.8 246.032C146.267 238.298 146.533 237.232 151.067 230.832C153.6 226.965 155.6 223.898 155.467 224.032C155.2 224.165 153.067 224.698 150.667 225.232ZM205.733 271.498C205.333 276.565 204.667 283.232 204.267 286.565C203.6 293.232 200.4 296.432 194 296.698L190.133 296.965L194 294.565C196 293.365 198.8 291.098 200.133 289.632C202.133 287.232 202.267 286.832 200.533 286.165C199.333 285.632 196.267 286.298 193.6 287.365C190.933 288.432 188.4 289.098 188 288.698C187.6 288.298 187.867 287.898 188.533 287.898C189.333 287.898 191.067 286.965 192.533 285.898C194.933 284.165 194.933 284.032 191.733 284.698C189.067 285.232 189.333 284.832 193.333 282.298C196.133 280.565 198.4 278.698 198.4 278.165C198.4 277.498 197.733 277.498 197.067 277.898C194.533 279.498 187.733 281.098 188.4 279.898C188.8 279.365 186.8 279.098 184.133 279.498C181.333 279.765 176.4 279.232 173.067 278.165L167.067 276.165L176.4 276.032C187.067 275.765 194.4 273.098 200.4 266.832C202.667 264.565 204.933 262.565 205.6 262.565C206.133 262.565 206.267 266.565 205.733 271.498ZM201.733 301.232C200.4 302.698 198.8 303.898 198.133 303.898C196.8 303.898 201.333 298.832 202.933 298.698C203.6 298.565 203.067 299.765 201.733 301.232Z" fill="black"/>
<path d="M58.1333 229.632C54.5333 232.699 51.7333 237.232 51.7333 240.032C51.7333 242.699 57.0667 237.099 59.8667 231.499C61.3333 228.832 62.2667 226.565 62.1333 226.565C61.8667 226.565 60.1333 227.899 58.1333 229.632Z" fill="black"/>
<path d="M350 235.898C335.6 238.965 332.8 239.898 304.8 251.765C276.8 263.498 269.333 265.498 252.133 265.765C242.933 265.898 239.467 266.298 241.467 267.098C243.067 267.765 249.867 268.165 256.4 268.165C269.467 268.165 279.733 265.632 295.733 258.298C332.4 241.632 353.2 236.565 379.467 237.632C388.4 238.032 395.733 238.032 395.733 237.898C395.733 237.632 396.133 236.565 396.533 235.365C397.733 232.165 365.867 232.565 350 235.898Z" fill="black"/>
<path d="M169.733 240.565C165.867 244.298 165.6 246.165 168.533 250.298C171.467 254.565 180.267 254.432 183.067 250.032C186.533 244.698 181.867 237.232 175.067 237.232C173.867 237.232 171.467 238.698 169.733 240.565Z" fill="black"/>
<path d="M370.8 248.832C372.667 250.565 388.267 253.098 389.6 251.765C391.2 250.298 388.933 249.632 378.4 248.565C373.6 248.032 370.267 248.165 370.8 248.832Z" fill="black"/>
<path d="M213.6 253.899C214 255.365 215.2 260.965 216.4 266.165C222.8 294.432 252.933 311.365 285.067 304.699C292.267 303.232 301.467 299.499 317.733 291.365C342.667 278.965 353.867 274.965 368.267 273.765C377.333 272.965 381.067 271.499 381.067 269.099C381.067 267.365 366.133 267.765 350.933 269.899C337.2 271.765 312.8 278.965 300.267 284.565C290.667 288.965 276.133 293.232 271.2 293.099C267.6 293.099 268.133 292.699 274.4 290.699C278.4 289.499 290.8 283.899 301.733 278.299C322 268.165 338.8 261.365 344.133 261.099C345.733 261.099 346.4 260.699 345.467 260.432C341.467 258.699 327.067 263.232 310.4 271.365C284.933 283.899 279.2 285.632 263.067 285.632C254.4 285.632 247.867 284.965 244.4 283.632L239.067 281.632L249.6 282.299C262.933 283.099 276.667 280.699 288.133 275.632C293.067 273.365 296.933 271.365 296.667 271.099C296.533 270.832 291.867 272.032 286.4 273.499C272.8 277.365 247.6 277.632 237.467 274.165C229.467 271.365 219.467 263.099 215.6 256.032C214.133 253.365 213.333 252.432 213.6 253.899Z" fill="black"/>
<path d="M25.0667 266.698C25.0667 267.098 25.7333 269.498 26.5333 272.032C29.2 279.632 38.4 288.165 38.4 282.832C38.4 280.698 25.3333 264.698 25.0667 266.698Z" fill="black"/>
<path d="M211.867 281.499L211.733 294.299L218.8 300.565C227.733 308.565 247.6 317.765 263.867 321.365C273.067 323.499 281.2 324.299 294.4 324.299C317.6 324.432 325.333 322.699 336.933 314.832C342 311.365 346 308.432 345.867 308.299C345.6 308.032 337.467 308.832 327.6 309.899C293.867 313.632 256.667 311.765 242.4 305.499C228.533 299.499 220 290.565 214.933 276.832L211.867 268.565V281.499Z" fill="black"/>
<path d="M427.2 271.098C428.533 272.165 430.267 272.565 431.067 271.898C434.267 269.365 449.6 272.832 455.6 277.365L458.667 279.898L454.933 281.365C446.533 284.698 431.6 285.765 421.6 283.632L412 281.765L410.8 289.898L409.467 297.898L409.2 288.032C409.067 279.898 409.333 278.432 411.067 279.098C412.267 279.498 413.067 279.098 413.067 278.032C413.067 276.032 415.867 274.565 419.733 274.565C421.067 274.565 422.4 273.632 422.933 272.565C423.867 270.032 421.067 270.032 415.067 272.432C408.667 275.232 406.4 280.432 406.4 292.832C406.4 304.698 410.133 314.698 416.267 319.632L419.867 322.432L416.8 322.832C414.4 323.232 415.067 323.765 419.733 325.098C426.8 327.232 449.733 326.432 452.133 324.032C453.2 322.965 452.8 322.565 450.533 322.565C447.733 322.565 447.867 322.298 452.267 318.032C459.2 311.632 461.467 305.098 461.467 292.432C461.467 277.898 459.733 274.565 450.4 271.632C446.4 270.432 438.933 269.365 433.867 269.365C425.467 269.232 424.8 269.365 427.2 271.098ZM430.133 288.832C428.8 289.098 426.667 289.098 425.467 288.832C424.133 288.432 425.2 288.165 427.733 288.165C430.267 288.165 431.333 288.432 430.133 288.832Z" fill="black"/>
<path d="M357.733 279.898C348.4 281.898 341.067 284.832 324.4 293.098C312.667 298.965 300.667 304.698 297.733 305.898C292.533 307.898 292.8 307.898 307.067 307.232C315.2 306.832 328.8 305.498 337.467 304.298L353.333 302.165L363.867 290.698C369.6 284.432 374.4 278.832 374.4 278.298C374.4 276.832 371.333 277.098 357.733 279.898Z" fill="black"/>
<path d="M17.0667 289.099C17.0667 291.632 27.6 299.632 32.1333 300.432C34.9333 300.965 37.0666 302.032 37.0666 302.832C37.0666 303.632 37.4666 304.032 37.8666 303.499C38.2666 303.099 36.9333 300.565 34.8 297.899C29.8666 291.632 17.0667 285.232 17.0667 289.099Z" fill="black"/>
<path d="M213.067 305.898C213.067 306.432 214.8 310.565 217.067 315.232C221.6 324.832 229.6 332.832 239.867 338.032C246.8 341.498 247.6 341.632 261.733 340.698C269.733 340.298 280 339.098 284.4 338.165L292.4 336.432L287.067 335.498C284.133 334.965 279.6 334.565 276.933 334.565C268.8 334.565 246.933 328.298 237.333 323.232C232.267 320.565 224.8 315.365 220.533 311.765C216.4 308.032 213.067 305.365 213.067 305.898Z" fill="black"/>
<path d="M72.4 421.098C60.2667 426.565 51.7334 442.432 53.7334 455.632C56.2667 472.298 70.2667 484.298 87.0667 484.298C109.733 484.432 125.733 463.498 119.867 441.765C117.733 434.032 110.267 424.698 103.333 421.365C95.7334 417.632 80.1334 417.498 72.4 421.098ZM98.1334 435.765C113.2 446.432 105.6 469.898 86.9334 469.498C76.8 469.365 69.7334 461.765 69.7334 450.965C69.7334 435.632 85.8667 426.965 98.1334 435.765Z" fill="black"/>
<path d="M142.933 420.299C142.667 421.232 142.533 435.765 142.667 452.565L143.067 483.232H149.733H156.4L157.067 465.365L157.733 447.365L161.6 453.365C163.733 456.565 169.6 464.832 174.667 471.632L183.867 484.032L190.133 483.632L196.4 483.232V451.232V419.232H189.733H183.067L182.4 437.232L181.733 455.099L174.933 445.899C171.2 440.699 165.733 432.965 162.933 428.565C160.133 424.165 157.2 420.165 156.4 419.632C154.133 417.899 143.733 418.432 142.933 420.299Z" fill="black"/>
<path d="M221.6 420.298C221.2 421.365 221.067 432.698 221.333 445.365C221.733 472.032 222.533 474.032 234.133 480.832C239.467 484.032 241.867 484.565 249.733 484.432C264.8 484.298 274.8 477.365 278.267 464.565C279.067 461.632 279.733 451.098 279.733 441.098C279.733 420.032 279.067 418.165 271.067 418.832L265.733 419.232L265.067 439.898C264.533 456.965 264 461.365 262 464.298C257.2 471.632 247.467 472.698 240.8 466.698L236.4 462.832L235.733 440.965L235.067 419.232L228.667 418.832C224.133 418.565 222.133 418.965 221.6 420.298Z" fill="black"/>
<path d="M305.467 420.032C302.933 422.565 303.067 478.432 305.467 481.765C307.067 483.898 309.067 484.165 324.533 483.765C344.4 483.098 350.8 480.965 354.667 473.098C358.933 464.965 356.8 453.898 350.267 450.565C347.6 449.098 347.733 448.965 351.067 445.098C357.067 437.898 354.667 427.098 345.867 421.765C342.533 419.765 338.533 419.098 324.4 418.832C311.6 418.432 306.667 418.832 305.467 420.032ZM338.133 434.832C343.067 439.765 337.2 445.232 326.8 445.232H319.733V439.232V433.232H328.133C332.933 433.232 337.2 433.898 338.133 434.832ZM340.267 459.765C345.6 465.632 339.867 470.565 327.467 470.565H319.733V463.898V457.232H328.8C336.133 457.232 338.4 457.765 340.267 459.765Z" fill="black"/>
<path d="M396.267 423.499C395.067 426.299 391.867 433.899 389.067 440.565C377.733 466.965 374 476.699 373.867 479.899C373.733 482.965 374.267 483.232 380 483.632L386.267 484.032L389.733 477.365L393.067 470.565H402.933C408.4 470.565 413.733 470.165 414.8 469.765C416.267 469.232 417.733 471.232 420.133 476.432C423.467 483.632 423.733 483.899 428.933 483.899C435.2 483.899 438.4 482.832 438.4 480.832C438.4 478.832 414.533 422.432 412.667 420.165C412 419.365 408.533 418.565 404.8 418.565C398.533 418.565 398.133 418.699 396.267 423.499ZM411.467 455.232C411.067 455.765 408 455.899 404.667 455.632L398.8 455.232L402.133 447.899L405.467 440.565L408.8 447.499C410.667 451.365 411.867 454.832 411.467 455.232Z" fill="black"/>
<path d="M174.667 510.032C172.4 511.632 171.733 513.232 172 516.298C172.267 519.632 173.2 520.565 176.933 521.898C179.467 522.698 181.867 524.165 182.133 524.965C182.8 527.232 179.067 528.298 176 526.698C174 525.632 172.933 525.765 171.733 527.232C169.333 530.165 176.133 532.565 182.4 530.965C186.667 530.032 187.067 529.498 187.067 525.232C187.067 521.098 186.4 520.298 182.133 518.165C176 515.232 175.467 512.698 181.067 513.498C186.8 514.298 189.333 511.098 184.4 509.232C179.6 507.365 178.133 507.498 174.667 510.032Z" fill="black"/>
<path d="M238.667 510.032C236.8 511.365 235.733 513.365 235.733 516.032C235.733 519.365 236.533 520.299 241.067 522.032C244 523.232 246.4 524.699 246.4 525.232C246.4 527.632 243.333 528.165 240.133 526.432C237.467 524.965 236.667 524.965 235.733 526.565C234.133 529.232 235.2 530.299 240.4 531.365C246.267 532.432 251.733 529.232 251.733 524.699C251.733 520.965 249.733 519.099 244.667 517.899C239.6 516.565 239.733 512.699 244.933 513.632C249.6 514.565 251.733 511.365 247.733 509.232C244.267 507.365 242.133 507.499 238.667 510.032Z" fill="black"/>
<path d="M201.333 517.898C202 527.765 203.6 530.298 210.533 531.365C218.133 532.698 221.467 528.832 222.133 518.032C222.667 509.898 222.533 509.232 220 509.232C217.6 509.232 217.2 510.165 216.8 516.698C216.4 524.698 214.133 527.765 209.867 526.165C208.267 525.498 207.733 523.498 207.733 517.232C207.733 509.498 207.6 509.232 204.267 509.232C200.8 509.232 200.8 509.232 201.333 517.898Z" fill="black"/>
<path d="M266.4 520.565C266.4 530.965 266.667 531.898 269.067 531.898C271.2 531.898 271.733 530.965 271.733 527.232C271.733 522.832 272 522.565 276.4 522.565C280.8 522.565 281.067 522.832 281.067 527.232C281.067 530.965 281.6 531.898 283.733 531.898C286.133 531.898 286.4 530.965 286.4 520.565C286.4 510.165 286.133 509.232 283.733 509.232C281.6 509.232 281.067 510.165 281.067 513.232C281.067 516.965 280.667 517.232 276.4 517.232C272.133 517.232 271.733 516.965 271.733 513.232C271.733 510.165 271.2 509.232 269.067 509.232C266.667 509.232 266.4 510.165 266.4 520.565Z" fill="black"/>
<path d="M302.4 520.298C302.4 530.432 302.667 531.365 305.067 531.498C307.6 531.765 307.733 530.965 307.733 520.432C307.733 510.165 307.467 509.232 305.067 509.232C302.667 509.232 302.4 510.165 302.4 520.298Z" fill="black"/>
<path d="M74 515.365C72.2667 517.098 73.0667 522.565 75.0667 523.365C76.1333 523.898 78.1333 523.632 79.4667 523.098C80.6667 522.432 93.7333 521.365 108.4 520.432L135.067 518.965L118.4 518.698C100.8 518.298 82.1333 516.832 77.7333 515.365C76.2667 514.832 74.5333 514.832 74 515.365Z" fill="black"/>
<path d="M407.467 515.898C406.267 516.698 393.733 517.765 379.467 518.298L353.733 519.365L379.067 520.298C393.067 520.832 405.467 521.898 406.667 522.565C412 525.498 416.933 521.765 414.267 516.832C412.8 514.298 410.8 514.032 407.467 515.898Z" fill="black"/>
</svg>
